<?xml version="1.0" encoding="utf-8"?>
<!-- Generator: Adobe Illustrator 27.1.1, SVG Export Plug-In . SVG Version: 6.00 Build 0)  -->
<svg version="1.1" xmlns="http://www.w3.org/2000/svg" xmlns:xlink="http://www.w3.org/1999/xlink" x="0px" y="0px"
	 viewBox="0 0 83.4 300" style="enable-background:new 0 0 83.4 300;" xml:space="preserve">
<style type="text/css">
	.st0{fill:#414141;}
	.st1{display:none;}
	.st2{display:inline;}
</style>
<g id="Layer_1">
	<g>
		<path class="st0" d="M62.7,0C64.2,0,65,0.8,65,2.3V4c0,1.4-0.8,2.2-2.3,2.2h-5.3c-1.8,0-3.3-0.4-3.3-0.4V6
			c6.3,2.3,12.1,9.8,12.1,17c0,8.6-4,13-11.6,14.3v0.2c5.9,2.6,11.6,9.3,11.6,17c0,11.2-6.5,15.4-18,15.4H20.9
			c-1.5,0-2.3-0.8-2.3-2.3V66c0-1.5,0.8-2.3,2.3-2.3h25.6c7.6,0,13.8-1.6,13.8-9.9c0-9.3-9.8-15.6-19.3-15.6H20.9
			c-1.5,0-2.3-0.7-2.3-2.2v-1.8c0-1.5,0.8-2.3,2.3-2.3h25.6c7,0,13.8-1,13.8-9.8c0-9.4-9.9-15.8-19.3-15.8H20.9
			c-1.5,0-2.3-0.7-2.3-2.2V2.3c0-1.5,0.8-2.3,2.3-2.3H62.7z"/>
		<path class="st0" d="M77.8,83.3h3.3c1.5,0,2.3,0.7,2.3,2.2v2.3c0,1.5-0.8,2.2-2.3,2.2h-3.3c-1.5,0-2.2-0.7-2.2-2.2v-2.3
			C75.6,84,76.3,83.3,77.8,83.3z M62.7,83.5c1.5,0,2.3,0.8,2.3,2.3v1.8c0,1.5-0.8,2.2-2.3,2.2H20.9c-1.5,0-2.3-0.7-2.3-2.2v-1.8
			c0-1.5,0.8-2.3,2.3-2.3H62.7z"/>
		<path class="st0" d="M66.1,123.8c0,12.3-8.9,19.3-22.1,19.3c-1.3,0-2.3-1-2.3-2.4v-33.3c-11.8,0.3-18.5,8.4-18.5,18
			c0,5.8,2.6,10,4.2,12.2c0.8,1.3,0.6,2.3-0.6,3l-1.1,0.7c-1.1,0.6-2.2,0.5-3-0.6c-1.8-2.5-5.2-8-5.2-15.5
			c0-13.8,9.9-24.2,24.2-24.2C57,101,66.1,111.3,66.1,123.8z M46.4,136.8c9.8-0.4,14.6-6.3,14.6-13.2c0-7.7-5.2-14.5-14.6-15.9
			V136.8z"/>
		<path class="st0" d="M26,151.3l0.9,0.7c1.1,0.8,1.2,1.8,0.4,3.1c-1.6,2-4.2,6.3-4.2,12.3c0,5.2,2.6,9.4,7.5,9.4
			c10.4,0,7.3-24.8,22.6-24.8c8.6,0,13,7.3,13,15.8c0,6.6-2.4,10.8-3.8,12.7c-0.7,1.2-1.8,1.4-3,0.6l-1-0.6
			c-1.3-0.7-1.4-1.8-0.6-3.1c1.2-1.8,2.9-5.1,2.9-9.9c0-4.9-2.1-9.1-7.2-9.1c-10.7,0-7.3,24.7-22.8,24.7c-7.6,0-13.1-6.4-13.1-15.7
			c0-8.1,3.4-13.4,5.3-15.7C23.7,150.5,24.8,150.4,26,151.3z"/>
		<path class="st0" d="M77.8,193.6h3.3c1.5,0,2.3,0.7,2.3,2.2v2.3c0,1.5-0.8,2.2-2.3,2.2h-3.3c-1.5,0-2.2-0.7-2.2-2.2v-2.3
			C75.6,194.4,76.3,193.6,77.8,193.6z M62.7,193.8c1.5,0,2.3,0.8,2.3,2.3v1.8c0,1.5-0.8,2.2-2.3,2.2H20.9c-1.5,0-2.3-0.7-2.3-2.2
			v-1.8c0-1.5,0.8-2.3,2.3-2.3H62.7z"/>
		<path class="st0" d="M47,238.7v2.7h1.5c8.9,0,12-4.9,12-11.4c0-5.2-1.9-9.1-3.2-11.2c-0.6-1.3-0.5-2.3,0.7-3.1l0.9-0.6
			c1.2-0.7,2.4-0.6,3.1,0.6c1.5,2.4,4.1,7.6,4.1,14.7c0,11.1-6.2,17.2-17.8,17.2H20.9c-3.6,0-5.9-7-11.5-7c-2.8,0-3.9,2.5-4.4,4.2
			c-0.4,1.1-1.1,1.5-2.3,1.2l-1-0.1c-1.3-0.3-1.8-1.2-1.7-2.4c0.6-3,2.5-8.7,8.3-8.7c5,0,9.2,4.5,11.1,7.2c0.3-0.4,0.8-0.5,1.6-0.5
			h3.7c2.1,0,3.5,0.3,3.5,0.3v-0.2c0,0.1-10.6-4.1-10.6-15.7c0-7.8,4.6-15.7,13.5-15.7C46.2,210.4,47,229.8,47,238.7z M22.8,227.2
			c0,8.9,9.2,14.2,17.3,14.2h2.2v-2.6c0-7.3-0.3-21.9-10.7-21.9C27.3,216.9,22.8,220.3,22.8,227.2z"/>
		<path class="st0" d="M66.1,282.5c0,7.9-3.4,13.1-5.3,15.4c-0.8,1.1-1.9,1.2-3.1,0.3l-1-0.6c-1.3-0.8-1.3-1.8-0.5-3.1
			c1.6-2,4.2-6.1,4.2-11.7c0-10.1-7.6-18.1-18.7-18.1c-11,0-18.6,7.9-18.6,18.1c0,6.4,3,10.9,4.9,13.1c0.9,1.2,0.7,2.2-0.6,3
			l-0.9,0.6c-1.2,0.7-2.2,0.5-3.1-0.6c-1.9-2.4-5.9-7.9-5.9-16.5c0-13.8,9.9-24.3,24.2-24.3C56,258.2,66.1,268.8,66.1,282.5z"/>
	</g>
</g>
<g id="Layer_2" class="st1">
	<g class="st2">
		<path class="st0" d="M26.1,191.8c0-11.2,9.3-15.2,9.3-15.2v-0.2c0,0-1.6,0.3-3.5,0.3H11.1c-1.5,0-2.3-0.8-2.3-2.3v-1.7
			c0-1.5,0.8-2.2,2.3-2.2h60.2c1.5,0,2.3,0.7,2.3,2.2v1.6c0,1.5-0.7,2.3-2.2,2.3h-3.5c-1.7,0-2.9-0.4-2.9-0.4v0.2
			c0,0,9.7,4,9.7,16.1c0,12.4-9.9,20.2-24.3,20.2C35.7,212.6,26.1,204,26.1,191.8z M69.1,191.5c0-7.7-5.5-15-18.7-15
			c-9.4,0-18.5,4.8-18.5,14.7c0,8.2,6.8,14.9,18.5,14.9C61.8,206.2,69.1,200.2,69.1,191.5z"/>
		<path class="st0" d="M70.9,160.1c-1.1,0-1.8-0.3-2.7-0.9L37,134.3c-2.3-1.8-4.2-3.7-4.2-3.7h-0.2c0,0,0.2,1.6,0.2,4.6v21.6
			c0,1.5-0.8,2.2-2.2,2.2h-1c-1.5,0-2.3-0.7-2.3-2.2v-32.4c0-1.5,0.7-2.2,2-2.2h0.6c1.1,0,1.8,0.3,2.7,0.9l31.2,25
			c2.3,1.8,4.2,3.8,4.2,3.8h0.2c0,0-0.2-1.7-0.2-4.7v-23.7c0-1.5,0.8-2.2,2.2-2.2h1c1.5,0,2.3,0.7,2.3,2.2v34.5c0,1.5-0.7,2.2-2,2.2
			H70.9z"/>
		<path class="st0" d="M14.4,111.1h-3.3c-1.5,0-2.3-0.7-2.3-2.2v-2.3c0-1.5,0.8-2.2,2.3-2.2h3.3c1.5,0,2.2,0.7,2.2,2.2v2.3
			C16.6,110.4,15.9,111.1,14.4,111.1z M29.5,110.9c-1.5,0-2.3-0.8-2.3-2.3v-1.8c0-1.5,0.8-2.2,2.3-2.2h41.7c1.5,0,2.3,0.7,2.3,2.2
			v1.8c0,1.5-0.8,2.3-2.3,2.3H29.5z"/>
		<path class="st0" d="M26.1,70.6c0-12.3,8.9-19.3,22.1-19.3c1.3,0,2.3,1,2.3,2.4V87c11.8-0.3,18.5-8.4,18.5-18
			c0-5.8-2.6-10-4.2-12.2c-0.8-1.3-0.6-2.3,0.6-3l1.1-0.7c1.1-0.6,2.2-0.5,3,0.6c1.8,2.5,5.2,8,5.2,15.5c0,13.8-9.9,24.2-24.2,24.2
			C35.3,93.4,26.1,83.1,26.1,70.6z M45.8,57.6c-9.8,0.4-14.6,6.3-14.6,13.2c0,7.7,5.2,14.5,14.6,15.9V57.6z"/>
		<path class="st0" d="M17.1,20.7l-6.8-4.1C9.2,16,8.7,15.3,8.7,14v-2.1c0-1.9,1.2-2.4,2.8-1.3l6.7,4.9c1,0.7,1.5,1.6,1.5,2.8v1
			C19.7,21,18.5,21.6,17.1,20.7z M29.5,40.3c-1.5,0-2.3-0.8-2.3-2.3v-1.7c0-1.4,0.8-2.2,2.3-2.2h5.3c1.8,0,3.3,0.4,3.3,0.4v-0.2
			c-4.2-1.8-12.1-7.8-12.1-18.7C26.1,4.1,32.7,0,44.1,0h27.2c1.5,0,2.3,0.8,2.3,2.3v1.8c0,1.5-0.8,2.2-2.3,2.2H45.8
			C38.5,6.3,32,7.5,32,16.4C32,26.3,40.1,34,50.9,34h20.4c1.5,0,2.3,0.7,2.3,2.2V38c0,1.5-0.8,2.3-2.3,2.3H29.5z"/>
	</g>
</g>
</svg>
