<?xml version="1.0" encoding="utf-8"?>
<!-- Generator: Adobe Illustrator 27.1.1, SVG Export Plug-In . SVG Version: 6.00 Build 0)  -->
<svg version="1.1" id="Layer_1" xmlns="http://www.w3.org/2000/svg" xmlns:xlink="http://www.w3.org/1999/xlink" x="0px" y="0px"
	 viewBox="0 0 300 300" style="enable-background:new 0 0 300 300;" xml:space="preserve">
<style type="text/css">
	.st0{fill:#FFFFFF;}
</style>
<g>
	<path class="st0" d="M219.8,52.7H80.2c-15.2,0-27.5,12.3-27.5,27.5v14.2h194.5V80.2C247.3,65.1,234.9,52.7,219.8,52.7z"/>
	<path class="st0" d="M150,167.3c4.2,0,7.6-3.4,7.6-7.6c0-4.2-3.4-7.6-7.6-7.6c-4.2,0-7.6,3.4-7.6,7.6
		C142.4,163.8,145.8,167.3,150,167.3z"/>
	<path class="st0" d="M115.7,167.3c4.2,0,7.6-3.4,7.6-7.6c0-4.2-3.4-7.6-7.6-7.6s-7.6,3.4-7.6,7.6
		C108.1,163.8,111.5,167.3,115.7,167.3z"/>
	<path class="st0" d="M150,198.7c4.2,0,7.6-3.4,7.6-7.6c0-4.2-3.4-7.6-7.6-7.6c-4.2,0-7.6,3.4-7.6,7.6
		C142.4,195.3,145.8,198.7,150,198.7z"/>
	<path class="st0" d="M150,230.2c4.2,0,7.6-3.4,7.6-7.6c0-4.2-3.4-7.6-7.6-7.6c-4.2,0-7.6,3.4-7.6,7.6
		C142.4,226.8,145.8,230.2,150,230.2z"/>
	<path class="st0" d="M150,135.8c4.2,0,7.6-3.4,7.6-7.6s-3.4-7.6-7.6-7.6c-4.2,0-7.6,3.4-7.6,7.6S145.8,135.8,150,135.8z"/>
	<path class="st0" d="M184.3,183.5c-4.2,0-7.6,3.4-7.6,7.6c0,4.2,3.4,7.6,7.6,7.6c4.2,0,7.6-3.4,7.6-7.6
		C191.9,186.9,188.5,183.5,184.3,183.5z"/>
	<path class="st0" d="M218.5,135.8c4.2,0,7.6-3.4,7.6-7.6s-3.4-7.6-7.6-7.6c-4.2,0-7.6,3.4-7.6,7.6S214.3,135.8,218.5,135.8z"/>
	<path class="st0" d="M218.5,167.3c4.2,0,7.6-3.4,7.6-7.6c0-4.2-3.4-7.6-7.6-7.6c-4.2,0-7.6,3.4-7.6,7.6
		C210.9,163.8,214.3,167.3,218.5,167.3z"/>
	<path class="st0" d="M184.3,135.8c4.2,0,7.6-3.4,7.6-7.6s-3.4-7.6-7.6-7.6c-4.2,0-7.6,3.4-7.6,7.6S180.1,135.8,184.3,135.8z"/>
	<path class="st0" d="M218.5,198.7c4.2,0,7.6-3.4,7.6-7.6c0-4.2-3.4-7.6-7.6-7.6c-4.2,0-7.6,3.4-7.6,7.6
		C210.9,195.3,214.3,198.7,218.5,198.7z"/>
	<path class="st0" d="M115.7,135.8c4.2,0,7.6-3.4,7.6-7.6s-3.4-7.6-7.6-7.6s-7.6,3.4-7.6,7.6S111.5,135.8,115.7,135.8z"/>
	<circle class="st0" cx="81.5" cy="159.6" r="7.6"/>
	<path class="st0" d="M81.5,198.7c4.2,0,7.6-3.4,7.6-7.6c0-4.2-3.4-7.6-7.6-7.6s-7.6,3.4-7.6,7.6C73.8,195.3,77.2,198.7,81.5,198.7z
		"/>
	<path class="st0" d="M52.7,219.8c0,15.2,12.3,27.5,27.5,27.5h139.5c15.2,0,27.5-12.3,27.5-27.5V105.4H52.7V219.8z M184.3,203.7
		c-7,0-12.6-5.7-12.6-12.6s5.7-12.6,12.6-12.6s12.6,5.7,12.6,12.6S191.2,203.7,184.3,203.7z M218.5,115.5c7,0,12.6,5.7,12.6,12.6
		s-5.7,12.6-12.6,12.6s-12.6-5.7-12.6-12.6S211.6,115.5,218.5,115.5z M218.5,147c7,0,12.6,5.7,12.6,12.6s-5.7,12.6-12.6,12.6
		s-12.6-5.7-12.6-12.6S211.6,147,218.5,147z M218.5,178.5c7,0,12.6,5.7,12.6,12.6s-5.7,12.6-12.6,12.6s-12.6-5.7-12.6-12.6
		S211.6,178.5,218.5,178.5z M184.3,115.5c7,0,12.6,5.7,12.6,12.6s-5.7,12.6-12.6,12.6s-12.6-5.7-12.6-12.6S177.3,115.5,184.3,115.5z
		 M172,157.5c1.2-1.2,3.1-1.2,4.2,0l7.3,7.3l8.6-15.5c0.8-1.5,2.6-2,4.1-1.2c1.5,0.8,2,2.6,1.2,4.1l-10.5,19
		c-0.5,0.8-1.3,1.4-2.2,1.5c-0.1,0-0.3,0-0.4,0c-0.8,0-1.6-0.3-2.1-0.9L172,161.8C170.9,160.6,170.9,158.7,172,157.5z M150,115.5
		c7,0,12.6,5.7,12.6,12.6s-5.7,12.6-12.6,12.6s-12.6-5.7-12.6-12.6S143,115.5,150,115.5z M150,147c7,0,12.6,5.7,12.6,12.6
		s-5.7,12.6-12.6,12.6s-12.6-5.7-12.6-12.6S143,147,150,147z M150,178.5c7,0,12.6,5.7,12.6,12.6s-5.7,12.6-12.6,12.6
		s-12.6-5.7-12.6-12.6S143,178.5,150,178.5z M150,210c7,0,12.6,5.7,12.6,12.6s-5.7,12.6-12.6,12.6s-12.6-5.7-12.6-12.6
		S143,210,150,210z M115.7,115.5c7,0,12.6,5.7,12.6,12.6s-5.7,12.6-12.6,12.6c-7,0-12.6-5.7-12.6-12.6S108.8,115.5,115.7,115.5z
		 M115.7,147c7,0,12.6,5.7,12.6,12.6s-5.7,12.6-12.6,12.6c-7,0-12.6-5.7-12.6-12.6S108.8,147,115.7,147z M115.7,178.5
		c7,0,12.6,5.7,12.6,12.6s-5.7,12.6-12.6,12.6c-7,0-12.6-5.7-12.6-12.6S108.8,178.5,115.7,178.5z M115.7,210c7,0,12.6,5.7,12.6,12.6
		s-5.7,12.6-12.6,12.6c-7,0-12.6-5.7-12.6-12.6S108.8,210,115.7,210z M81.5,147c7,0,12.6,5.7,12.6,12.6s-5.7,12.6-12.6,12.6
		s-12.6-5.7-12.6-12.6S74.5,147,81.5,147z M81.5,178.5c7,0,12.6,5.7,12.6,12.6s-5.7,12.6-12.6,12.6s-12.6-5.7-12.6-12.6
		S74.5,178.5,81.5,178.5z M81.5,210c7,0,12.6,5.7,12.6,12.6s-5.7,12.6-12.6,12.6s-12.6-5.7-12.6-12.6S74.5,210,81.5,210z"/>
	<path class="st0" d="M81.5,230.2c4.2,0,7.6-3.4,7.6-7.6c0-4.2-3.4-7.6-7.6-7.6s-7.6,3.4-7.6,7.6C73.8,226.8,77.2,230.2,81.5,230.2z
		"/>
	<path class="st0" d="M115.7,230.2c4.2,0,7.6-3.4,7.6-7.6c0-4.2-3.4-7.6-7.6-7.6s-7.6,3.4-7.6,7.6
		C108.1,226.8,111.5,230.2,115.7,230.2z"/>
	<path class="st0" d="M115.7,198.7c4.2,0,7.6-3.4,7.6-7.6c0-4.2-3.4-7.6-7.6-7.6s-7.6,3.4-7.6,7.6
		C108.1,195.3,111.5,198.7,115.7,198.7z"/>
</g>
</svg>
