<?xml version="1.0" encoding="utf-8"?>
<!-- Generator: Adobe Illustrator 27.3.1, SVG Export Plug-In . SVG Version: 6.00 Build 0)  -->
<svg version="1.1" id="Layer_1" xmlns="http://www.w3.org/2000/svg" xmlns:xlink="http://www.w3.org/1999/xlink" x="0px" y="0px"
	 viewBox="0 0 868.5 866.5" style="enable-background:new 0 0 868.5 866.5;" xml:space="preserve">
<style type="text/css">
	.st0{fill:#FFFFFF;}
</style>
<path class="st0" d="M679.3,779.9c18.4,5.5,35.5-10.9,30.9-29.5c-0.7-2.8-1.8-5.6-2.9-8.3c-9.8-23.9-19.5-47.8-29.7-71.6
	c-2.1-5-5.4-9.7-9.2-13.6c-15.5-16-31.4-31.7-47.2-47.4c-25.7-25.7-51.5-51.5-77.2-77.3c-2.1-2.1-5.3-3.7-5-8.5c3.5,0,6.6,0,9.8,0
	c19.7,0,39.3,0.2,59-0.1c73.7-1.1,130.1-58.3,130.2-131.8c0-51.7,0-103.3,0-155c-0.1-65.1-45.7-119-109.8-129.3
	c-9.2-1.5-18.7-1.9-28.1-2c-23.5-0.3-47-0.1-70.5-0.1c-3.4,0-6.9-0.3-11.5-0.5c-0.2-12.5-0.3-24.4-0.5-36.8c-49.9,0-98.5,0-148.8,0
	c-2.1,12.2,0.4,24.6-1.8,37.3c-4.4,0-7.9,0-11.4,0c-23.8,0-47.6-0.5-71.3,0.2c-12.5,0.3-25.4,1.3-37.5,4.2
	c-57.8,13.8-98.8,66.3-98.9,126c-0.1,138.6-0.1,277.2,0,415.7c0,6.1,0.6,12.3,1.4,18.4c6.7,50.7,51.8,93.3,102.8,97.2
	c3.4,0.3,6.8,0,11.4,0c0-5.6,0-9.9,0-14.2c0-168.2,0-336.5,0-504.7c0-2.9,0-5.9,0-8.8c0.3-12.7,5.6-18,18.5-18.1
	c15-0.1,30-0.1,44.9,0c2.5,0,5.1,0.5,8.5,0.9c0.2,12.4,0.4,24.2,0.6,35.7c10.1,2.3,206,2,213.7-0.2c0.2-2.6,0.5-5.4,0.6-8.3
	c0.1-6.2,0-12.3,0.1-18.5c0.1-9.3,0.3-9.5,9.3-9.6c13.2-0.1,26.4,0,39.6,0c19.1,0,23.3,4.2,23.3,23.3c0,46.7,0,93.4,0,140
	c0,2.3,0.1,4.7-0.1,7c-0.8,10.2-6.1,15.5-16.2,16.2c-3.5,0.2-7,0.1-10.6,0.1c-66.6,0-133.3-0.1-199.9,0.1
	c-29.5,0.1-53.5,20.7-57.4,49.4c-2.7,20,3.9,36.9,18.1,51.1c76.8,76.8,153.6,153.7,230.5,230.3c3.8,3.8,8.8,6.8,13.8,8.9
	c20.5,8.8,41.2,17.2,61.8,25.6C668.3,775.8,673.7,778.2,679.3,779.9z M664.7,709c4.2,4.3,17.1,34,19.6,46.4
	c-16.2-6.7-30.9-12.7-45.7-18.8C642,730.1,655.9,715.6,664.7,709z"/>
</svg>
