<?xml version="1.0" encoding="utf-8"?>
<!-- Generator: Adobe Illustrator 27.2.0, SVG Export Plug-In . SVG Version: 6.00 Build 0)  -->
<svg version="1.1" id="Layer_1" xmlns="http://www.w3.org/2000/svg" xmlns:xlink="http://www.w3.org/1999/xlink" x="0px" y="0px"
	 viewBox="0 0 566.9 566.9" style="enable-background:new 0 0 566.9 566.9;" xml:space="preserve">
<style type="text/css">
	.st0{fill:#FFFFFF;}
</style>
<g>
	<circle class="st0" cx="464.4" cy="283.5" r="18"/>
	<circle class="st0" cx="528.2" cy="351.1" r="24.5"/>
	
		<ellipse transform="matrix(0.7071 -0.7071 0.7071 0.7071 44.3408 395.3683)" class="st0" cx="499.4" cy="144.2" rx="24.3" ry="24.3"/>
	<circle class="st0" cx="489.7" cy="240.1" r="14.5"/>
	<path class="st0" d="M435.7,395.1c0-12.2,2.3-23.9,6.5-34.7c-23.6-17.4-38.9-45.4-38.9-77c0-31.6,15.3-59.6,38.9-77
		c-4.2-10.7-6.5-22.4-6.5-34.7c0-31.8,15.6-60.1,39.5-77.5c-48.8-49.5-116.7-80.2-191.7-80.2c-148.7,0-269.3,120.6-269.3,269.3
		s120.6,269.3,269.3,269.3c75,0,142.9-30.7,191.7-80.2C451.2,455.2,435.7,427,435.7,395.1z M131.2,376.1c-32.6,0-59-26.4-59-59
		s26.4-59,59-59s59,26.4,59,59S163.8,376.1,131.2,376.1z M190.2,151.1c-14.9,0-27-12.1-27-27s12.1-27,27-27s27,12.1,27,27
		S205.1,151.1,190.2,151.1z M251.7,217.1c0-20.7,16.8-37.5,37.5-37.5s37.5,16.8,37.5,37.5s-16.8,37.5-37.5,37.5
		S251.7,237.8,251.7,217.1z M302.2,445.1c-18.2,0-33-14.8-33-33s14.8-33,33-33s33,14.8,33,33S320.4,445.1,302.2,445.1z"/>
</g>
</svg>
