<?xml version="1.0" encoding="utf-8"?>
<!-- Generator: Adobe Illustrator 24.1.3, SVG Export Plug-In . SVG Version: 6.00 Build 0)  -->
<svg version="1.1" id="Layer_1" xmlns="http://www.w3.org/2000/svg" xmlns:xlink="http://www.w3.org/1999/xlink" x="0px" y="0px"
	 viewBox="0 0 868.48 866.54" style="enable-background:new 0 0 868.48 866.54;" xml:space="preserve">
<style type="text/css">
	.st0{fill:#FFFFFF;}
</style>
<path class="st0" d="M577.07,626.23c10.42,3.12,20.13-6.21,17.53-16.75c-0.4-1.61-1.01-3.18-1.64-4.71
	c-5.57-13.57-11.07-27.16-16.83-40.64c-1.21-2.82-3.09-5.53-5.24-7.74c-8.82-9.09-17.85-17.97-26.81-26.93
	c-14.61-14.61-29.23-29.21-43.81-43.86c-1.18-1.19-2.98-2.12-2.82-4.81c1.97,0,3.77,0,5.57,0c11.17,0,22.33,0.13,33.5-0.03
	c41.83-0.61,73.85-33.07,73.88-74.8c0.02-29.33,0.02-58.66,0-87.99c-0.03-36.97-25.95-67.57-62.33-73.38
	c-5.24-0.84-10.61-1.07-15.93-1.14c-13.33-0.16-26.66-0.04-40-0.07c-1.95,0-3.91-0.18-6.53-0.31c-0.1-7.11-0.19-13.83-0.29-20.88
	c-28.34,0-55.93,0-84.47,0c-1.2,6.95,0.25,13.97-1,21.2c-2.52,0-4.5,0-6.48,0c-13.5,0-27-0.26-40.49,0.11
	c-7.12,0.19-14.39,0.76-21.29,2.41c-32.81,7.84-56.08,37.64-56.11,71.54c-0.06,78.66-0.03,157.32,0.01,235.98
	c0,3.48,0.34,6.99,0.8,10.45c3.83,28.78,29.39,52.93,58.36,55.17c1.91,0.15,3.84,0.02,6.49,0.02c0-3.17,0-5.62,0-8.07
	c0-95.49,0-190.98,0-286.47c0-1.67-0.02-3.33,0.01-5c0.16-7.2,3.19-10.22,10.52-10.28c8.5-0.07,17-0.04,25.5,0
	c1.44,0.01,2.88,0.28,4.83,0.49c0.11,7.04,0.21,13.76,0.32,20.28c5.75,1.28,116.95,1.11,121.28-0.14c0.11-1.46,0.31-3.08,0.34-4.7
	c0.06-3.5-0.01-7,0.03-10.5c0.06-5.26,0.18-5.41,5.29-5.44c7.5-0.05,15-0.02,22.5-0.01c10.84,0.01,13.22,2.36,13.22,13.2
	c0.01,26.5,0,52.99,0,79.49c0,1.33,0.04,2.67-0.06,4c-0.46,5.79-3.46,8.8-9.19,9.18c-1.99,0.13-4,0.07-6,0.07
	c-37.83,0-75.66-0.04-113.49,0.03c-16.76,0.03-30.35,11.73-32.59,28.06c-1.56,11.35,2.22,20.95,10.28,29.01
	c43.62,43.59,87.18,87.22,130.86,130.74c2.17,2.16,5.02,3.85,7.86,5.07c11.63,5,23.38,9.74,35.09,14.55
	C570.84,623.9,573.89,625.28,577.07,626.23z M568.81,585.99c2.39,2.42,9.69,19.32,11.11,26.36c-9.18-3.78-17.53-7.22-25.93-10.68
	C555.92,597.96,563.8,589.75,568.81,585.99z M663.22,103.97c1.49,0.07,2.97,0.2,5.33,0.35c-1.26,1.35-1.97,2.33-2.87,3.05
	c-7.4,5.96-14.83,11.86-22.26,17.79c-4.39,3.5-4.38,3.5-2.94,8.72c2.4,8.67,4.8,17.34,7.17,26.02c0.43,1.57,0.74,3.17,1.3,5.6
	c-1.78-0.88-2.93-1.32-3.94-1.98c-7.94-5.2-16-10.25-23.72-15.78c-3.48-2.49-5.96-2.21-9.28,0.13
	c-7.34,5.19-14.95,10.01-22.47,14.95c-1.34,0.88-2.76,1.65-4.99,2.96c0.52-2.49,0.77-4.08,1.19-5.62c2.45-9,4.79-18.04,7.5-26.96
	c1.04-3.44,0.29-5.49-2.54-7.62c-6.92-5.21-13.6-10.73-20.37-16.14c-1.67-1.34-3.31-2.72-4.96-4.09c0.1-0.36,0.2-0.73,0.3-1.09
	c5.44-0.33,10.87-0.69,16.31-0.97c5.66-0.3,11.31-0.65,16.97-0.74c2.96-0.04,4.48-1.3,5.46-4.03c3.34-9.24,6.86-18.42,10.34-27.62
	c0.46-1.21,1.07-2.36,1.96-4.27c0.9,1.96,1.58,3.21,2.08,4.53c3.36,8.88,6.79,17.74,9.95,26.69c1.16,3.3,2.95,4.69,6.52,4.78
	C644.6,102.89,653.91,103.5,663.22,103.97z M661.46,734.33c1.72,0.08,3.43,0.34,6.23,0.64c-1.99,1.79-3.02,2.82-4.15,3.72
	c-7.4,5.95-14.77,11.94-22.28,17.75c-2.47,1.91-3.12,3.83-2.23,6.85c2.64,8.95,5.03,17.97,7.49,26.96c0.43,1.57,0.74,3.17,1.28,5.54
	c-1.64-0.73-2.67-1.03-3.52-1.59c-8.23-5.37-16.52-10.67-24.61-16.25c-2.92-2.01-5.18-2.05-8.09-0.03
	c-7.53,5.22-15.24,10.17-22.9,15.21c-1.36,0.89-2.78,1.69-4.17,2.53c-0.33-0.22-0.65-0.44-0.98-0.66c1.41-5.26,2.8-10.53,4.23-15.79
	c1.4-5.14,2.67-10.33,4.34-15.39c1.1-3.34,0.46-5.49-2.41-7.66c-7.18-5.42-14.12-11.15-21.13-16.78c-1.38-1.11-2.67-2.33-4.99-4.37
	c2.98-0.32,4.7-0.6,6.43-0.68c9.15-0.43,18.3-0.93,27.46-1.15c3.13-0.08,4.83-1.23,5.89-4.17c3.21-8.93,6.63-17.8,9.99-26.68
	c0.56-1.48,1.27-2.9,2.34-5.34c1.08,2.55,1.77,4.02,2.34,5.54c3.3,8.73,6.67,17.43,9.78,26.22c1.11,3.15,2.82,4.39,6.2,4.45
	C643.16,733.37,652.31,733.9,661.46,734.33z M201.64,104.3c5.25-0.33,10.5-0.69,15.75-0.98c5.49-0.29,10.99-0.78,16.47-0.67
	c4.12,0.08,5.84-1.83,7.09-5.43c2.95-8.5,6.24-16.87,9.42-25.29c0.58-1.52,1.26-3.01,2.27-5.38c0.96,2.03,1.64,3.25,2.13,4.54
	c3.36,8.88,6.79,17.74,9.96,26.69c1.15,3.24,2.81,4.78,6.45,4.87c9.32,0.22,18.63,0.84,27.95,1.32c1.59,0.08,3.18,0.26,6,0.51
	c-2.21,1.86-3.53,3.02-4.91,4.11c-6.9,5.51-13.82,11-20.73,16.48c-4.46,3.53-4.45,3.52-2.89,9.18c2.4,8.67,4.79,17.34,7.16,26.02
	c0.39,1.42,0.66,2.88,1.18,5.16c-1.69-0.8-2.84-1.2-3.83-1.85c-8.22-5.39-16.49-10.71-24.57-16.31c-2.76-1.91-4.81-1.96-7.58-0.02
	c-7.23,5.06-14.68,9.82-22.05,14.67c-1.78,1.17-3.6,2.26-5.4,3.39c-0.31-0.27-0.62-0.53-0.92-0.8c1.79-6.56,3.57-13.12,5.36-19.68
	c1.1-4.02,2.08-8.08,3.38-12.02c0.97-2.95,0.4-4.91-2.14-6.85c-7.41-5.66-14.64-11.57-21.93-17.39
	C203.88,107.5,202.57,106.34,201.64,104.3z M165.96,236.27c1.58,0.08,3.14,0.35,5.83,0.67c-2.11,1.88-3.27,3.01-4.52,4.02
	c-7.14,5.74-14.2,11.59-21.51,17.11c-2.88,2.18-3.43,4.3-2.42,7.65c2.64,8.77,4.95,17.64,7.36,26.48c0.43,1.57,0.76,3.18,1.34,5.62
	c-1.75-0.83-2.91-1.23-3.91-1.88c-7.39-4.84-14.74-9.73-22.11-14.59c-7.54-4.97-5.57-4.36-12.53,0.09
	c-7.16,4.57-14.19,9.35-21.29,14.01c-1.19,0.78-2.47,1.41-4.65,2.64c0.62-2.72,0.96-4.46,1.43-6.17c2.42-8.84,4.75-17.7,7.39-26.47
	c0.96-3.2,0.38-5.19-2.32-7.25c-7.43-5.64-14.63-11.57-21.91-17.41c-1.14-0.91-2.2-1.92-3.44-3.01c1.35-1.89,3.14-1.41,4.66-1.48
	c9.15-0.45,18.3-1.05,27.46-1.14c4.07-0.04,5.89-1.63,7.16-5.33c2.91-8.51,6.22-16.88,9.4-25.29c0.57-1.52,1.29-2.99,2.34-5.39
	c1.02,2.11,1.73,3.33,2.22,4.63c3.37,8.88,6.81,17.73,9.99,26.68c1.18,3.32,3.02,4.62,6.59,4.68
	C147.65,235.28,156.8,235.83,165.96,236.27z M387.53,61.34c-1.26-1.01-2.44-2.12-3.84-3.34c1.66-1.95,3.6-1.56,5.3-1.64
	c8.98-0.43,17.96-0.95,26.94-1.08c3.75-0.06,5.63-1.46,6.85-4.98c2.93-8.5,6.23-16.87,9.39-25.28c0.63-1.66,1.34-3.3,3.02-4.99
	c0.62,1.44,1.29,2.87,1.85,4.33c3.3,8.72,6.7,17.41,9.77,26.21c1.17,3.36,2.98,4.64,6.53,4.7c8.98,0.15,17.96,0.65,26.94,1.08
	c1.73,0.08,3.45,0.43,6.36,0.8c-2.11,1.9-3.24,3.03-4.48,4.02c-7.14,5.73-14.22,11.54-21.5,17.1c-2.82,2.16-3.42,4.29-2.39,7.69
	c2.67,8.76,4.95,17.63,7.36,26.46c0.42,1.55,0.72,3.14,1.3,5.7c-2.07-1.12-3.36-1.7-4.52-2.46c-7.53-4.92-15.02-9.88-22.53-14.83
	c-5.58-3.68-4.75-3.63-10.46,0.12c-7.23,4.76-14.45,9.54-21.69,14.28c-1.35,0.88-2.78,1.64-4.17,2.46
	c-0.31-0.26-0.61-0.52-0.92-0.78c1.08-3.98,2.14-7.97,3.24-11.95c1.73-6.26,3.24-12.59,5.3-18.74c1.29-3.86,0.17-6.11-2.9-8.43
	C401.22,72.49,394.41,66.86,387.53,61.34z M300.27,734.35c1.44,0.07,2.87,0.37,5.47,0.72c-2.06,1.85-3.29,3.06-4.63,4.14
	c-7.15,5.74-14.23,11.55-21.53,17.09c-2.71,2.06-3.22,4.1-2.28,7.26c2.61,8.78,4.94,17.65,7.35,26.49c0.47,1.71,0.8,3.45,1.44,6.26
	c-2.31-1.38-3.71-2.14-5.04-3.01c-7.79-5.13-15.63-10.19-23.32-15.48c-2.73-1.88-4.89-1.95-7.67-0.04
	c-7.83,5.37-15.83,10.5-23.78,15.7c-1.2,0.79-2.5,1.44-4.64,2.67c0.53-2.5,0.79-4.07,1.21-5.6c2.46-9,4.84-18.02,7.51-26.96
	c0.96-3.19,0.4-5.22-2.29-7.27c-7.41-5.67-14.63-11.59-21.9-17.43c-1.23-0.99-2.38-2.08-4.53-3.96c3.08-0.29,4.83-0.52,6.6-0.61
	c9.15-0.42,18.3-0.92,27.46-1.15c3.14-0.08,4.8-1.25,5.85-4.2c3.13-8.79,6.48-17.5,9.77-26.23c0.58-1.53,1.25-3.02,2.31-5.55
	c1.03,2.06,1.76,3.23,2.24,4.49c3.14,8.25,6.24,16.52,9.33,24.79c2.82,7.56,2.38,6.41,9.09,6.71
	C282.96,733.57,291.62,733.93,300.27,734.35z M482.62,784.94c0.92,0.05,1.84,0.33,3.79,0.7c-1.94,1.73-3.19,2.95-4.54,4.04
	c-7.14,5.73-14.26,11.51-21.5,17.11c-2.44,1.88-3.17,3.76-2.26,6.82c2.66,8.93,5.03,17.96,7.48,26.96c0.43,1.56,0.7,3.16,1.25,5.64
	c-1.9-0.94-3.07-1.37-4.08-2.04c-8.09-5.28-16.23-10.49-24.18-15.97c-2.74-1.89-4.8-2.01-7.59-0.07
	c-7.66,5.31-15.53,10.33-23.33,15.44c-1.31,0.86-2.71,1.59-5.04,2.94c0.57-2.7,0.83-4.3,1.25-5.84c2.4-8.84,4.69-17.71,7.36-26.47
	c1.04-3.4,0.41-5.52-2.41-7.67c-7.28-5.55-14.37-11.36-21.52-17.08c-1.29-1.03-2.53-2.12-4.36-3.66c1.58-0.38,2.57-0.77,3.57-0.83
	c9.97-0.55,19.95-1.18,29.93-1.47c3.37-0.1,5.06-1.31,6.17-4.47c3.1-8.79,6.48-17.49,9.78-26.21c0.57-1.52,1.26-3,2.21-5.26
	c0.91,1.82,1.57,2.88,2,4.03c3.42,9.03,6.9,18.05,10.13,27.15c1.15,3.25,2.82,4.71,6.46,4.79
	C463.01,783.74,472.82,784.41,482.62,784.94z M67.47,462.58c-7.73,5.5-15.78,10.55-23.72,15.76c-0.94,0.61-1.97,1.09-4,2.19
	c0.53-2.62,0.78-4.32,1.22-5.96c2.36-8.68,4.58-17.4,7.25-25.98c1.2-3.86,0.23-6.1-2.89-8.43c-6.81-5.07-13.36-10.49-20-15.79
	c-1.53-1.22-2.99-2.54-5.26-4.49c2.1-0.43,3.27-0.83,4.45-0.89c9.15-0.45,18.3-1.02,27.45-1.16c4.48-0.07,6.85-1.67,8.28-6.07
	c2.72-8.39,6.08-16.57,9.2-24.83c0.56-1.47,1.26-2.88,2.35-5.31c1.14,2.56,1.86,4.01,2.44,5.52c3.01,7.94,5.93,15.92,9,23.84
	c2.4,6.19,0.97,6.43,9.64,6.82c8.65,0.4,17.3,0.77,25.95,1.17c1.31,0.06,2.61,0.24,5.19,0.49c-2.16,1.87-3.36,2.97-4.62,3.99
	c-7.02,5.62-13.93,11.39-21.14,16.76c-3.14,2.34-4.05,4.56-2.85,8.39c2.72,8.74,4.96,17.63,7.38,26.47
	c0.42,1.55,0.75,3.13,1.37,5.73c-2.2-1.29-3.6-2.04-4.91-2.9c-7.66-5.02-15.4-9.93-22.9-15.19
	C73.17,460.49,70.8,460.21,67.47,462.58z M166.25,600.97c1.41,0.07,2.82,0.36,5.4,0.7c-2.16,1.91-3.42,3.12-4.78,4.21
	c-6.89,5.53-13.66,11.22-20.77,16.44c-3.3,2.42-3.8,4.78-2.67,8.48c2.63,8.6,4.87,17.32,7.26,26c0.44,1.59,0.8,3.19,1.4,5.62
	c-1.69-0.8-2.84-1.19-3.83-1.83c-8.23-5.38-16.49-10.72-24.59-16.28c-2.72-1.87-4.78-2.05-7.59-0.08
	c-7.65,5.34-15.52,10.36-23.32,15.48c-1.32,0.86-2.71,1.61-5.17,3.05c0.68-3.04,1-4.78,1.46-6.49c2.41-8.84,4.76-17.7,7.35-26.49
	c0.88-2.99,0.3-4.92-2.21-6.84c-7.28-5.57-14.39-11.36-21.54-17.09c-1.35-1.08-2.59-2.3-4.73-4.21c2.65-0.33,4.06-0.6,5.47-0.67
	c8.82-0.42,17.64-0.96,26.47-1.12c4.4-0.08,6.91-1.5,8.35-5.98c2.7-8.4,6.08-16.58,9.2-24.84c0.56-1.49,1.26-2.93,2.35-5.43
	c1.13,2.54,1.86,3.98,2.43,5.48c3.07,8.1,6.38,16.13,9.03,24.37c1.54,4.8,4.2,6.43,9.06,6.45
	C148.94,599.95,157.6,600.56,166.25,600.97z M702.28,241.01c-1.26-1.01-2.42-2.14-4.55-4.04c2.67-0.33,4.21-0.63,5.76-0.7
	c8.98-0.43,17.97-1.02,26.96-1.12c3.95-0.04,6.01-1.34,7.31-5.13c2.97-8.66,6.36-17.18,9.6-25.75c0.56-1.48,1.27-2.91,2.37-5.42
	c1.15,2.75,1.89,4.37,2.52,6.04c3.23,8.57,6.55,17.12,9.59,25.76c1.11,3.16,2.83,4.39,6.19,4.46c9.16,0.19,18.31,0.73,27.46,1.15
	c1.62,0.08,3.24,0.28,4.85,0.42c0.15,0.37,0.29,0.74,0.44,1.1c-1.22,1.06-2.4,2.18-3.65,3.19c-7.15,5.73-14.21,11.58-21.53,17.09
	c-2.92,2.19-3.39,4.36-2.4,7.69c2.67,8.94,5.04,17.96,7.51,26.96c0.38,1.4,0.64,2.84,1.11,4.98c-1.58-0.69-2.62-0.99-3.49-1.55
	c-7.81-5.11-15.77-10.01-23.29-15.5c-4.1-3-7.07-2.67-11.01,0.2c-7.13,5.19-14.67,9.82-22.06,14.66c-1.17,0.77-2.44,1.37-4.47,2.5
	c0.55-2.54,0.82-4.13,1.25-5.68c2.37-8.68,4.55-17.42,7.27-25.99c1.28-4.04,0.26-6.4-2.98-8.83
	C715.97,252.18,709.17,246.54,702.28,241.01z M796.18,600.98c1.41,0.07,2.81,0.35,5.42,0.7c-2.32,2.02-3.71,3.33-5.21,4.53
	c-6.89,5.51-13.73,11.1-20.77,16.42c-2.84,2.15-3.47,4.3-2.44,7.69c2.65,8.76,4.96,17.63,7.38,26.47c0.42,1.55,0.68,3.14,1.27,5.96
	c-2.38-1.4-3.76-2.14-5.07-3c-7.94-5.21-15.91-10.36-23.74-15.73c-2.46-1.69-4.34-1.61-6.74,0.02c-7.85,5.33-15.82,10.5-23.75,15.71
	c-1.36,0.89-2.78,1.69-4.9,2.98c0.32-2,0.41-3.23,0.73-4.4c2.58-9.48,5.08-18.99,7.88-28.4c0.96-3.22,0.28-5.15-2.4-7.19
	c-7.68-5.85-15.15-11.99-22.67-18.04c-0.97-0.78-1.82-1.72-3.34-3.17c2.27-0.25,3.69-0.48,5.11-0.54c8.82-0.41,17.63-0.99,26.45-1.1
	c4.59-0.06,7.24-1.46,8.74-6.14c2.64-8.24,5.98-16.25,9.04-24.35c0.58-1.53,1.27-3.01,2.36-5.59c1.04,2.05,1.77,3.21,2.24,4.46
	c3.3,8.72,6.75,17.4,9.73,26.23c1.28,3.8,3.37,5.22,7.24,5.31C777.89,600.02,787.03,600.54,796.18,600.98z M848.4,419.4
	c-0.28,2.4-2.11,3.18-3.42,4.23c-6.99,5.65-13.96,11.34-21.13,16.76c-2.95,2.24-3.75,4.46-2.65,8.07
	c2.68,8.75,4.97,17.63,7.38,26.46c0.42,1.52,0.65,3.1,1.18,5.7c-2.38-1.38-3.81-2.12-5.15-3c-7.24-4.75-14.61-9.32-21.61-14.4
	c-3.81-2.76-6.68-2.91-10.56-0.09c-7.27,5.28-14.94,10-22.46,14.93c-1.21,0.79-2.52,1.45-3.78,2.17c-0.24-0.26-0.49-0.52-0.73-0.78
	c2.82-10.26,5.47-20.57,8.56-30.74c1.14-3.77,0.54-6.03-2.7-8.43c-7.48-5.55-14.64-11.55-21.92-17.37
	c-1.02-0.81-1.99-1.69-3.66-3.12c1.92-0.37,3.09-0.74,4.28-0.8c9.31-0.45,18.63-1,27.95-1.17c4.25-0.08,6.59-1.54,7.98-5.73
	c2.78-8.37,6.11-16.56,9.23-24.81c0.58-1.52,1.28-2.99,2.38-5.52c1.05,2.14,1.76,3.32,2.24,4.58c3.24,8.57,6.67,17.07,9.55,25.76
	c1.4,4.23,3.77,5.63,7.99,5.71c8.99,0.17,17.97,0.72,26.95,1.14C845.56,419.02,846.84,419.23,848.4,419.4z"/>
</svg>
