<?xml version="1.0" encoding="utf-8"?>
<!-- Generator: Adobe Illustrator 27.1.1, SVG Export Plug-In . SVG Version: 6.00 Build 0)  -->
<svg version="1.1" id="Layer_1" xmlns="http://www.w3.org/2000/svg" xmlns:xlink="http://www.w3.org/1999/xlink" x="0px" y="0px"
	 viewBox="0 0 163.7 45.6" style="enable-background:new 0 0 163.7 45.6;" xml:space="preserve">
<style type="text/css">
	.st0{fill:#FFFFFF;}
</style>
<path class="st0" d="M80.3,8.6h7l-0.5-4.3h-8.5c-2.3,0-4.1,1.8-4.1,4.1v16.6h5v-8.1h7.2v-4.1h-7.2V9.7C79.2,9.1,79.7,8.6,80.3,8.6
	 M105.1,4.4h-3c-0.8,0-1.6,0.5-1.9,1.3l-7.6,19.4h5.9l1.3-3.8h7.5l1.3,3.8h5.9L107,5.7C106.7,4.9,105.9,4.4,105.1,4.4 M101,17.5
	l1.3-3.9c0.4-1.2,0.8-2.8,1.1-4.4h0.1c0.3,1.6,0.7,3.2,1.1,4.4l1.3,3.9H101z M155.3,19.8v-3.2h7.5v-4.1h-7.5V9.7c0-0.6,0.5-1,1-1
	h7.3l-0.5-4.3h-8.8c-2.3,0-4.1,1.8-4.1,4.1V21c0,2.3,1.8,4.1,4.1,4.1h8.8l0.5-4.3h-7.3C155.8,20.8,155.3,20.3,155.3,19.8
	 M136.5,18.7c-1.1,1.6-2.6,2.2-4.4,2.2c-3.2,0-5.7-2.5-5.7-6.1c0-3.7,2.5-6.2,5.6-6.2c1.8,0,3.4,0.7,4.5,2.2
	c0.3,0.4,0.9,0.5,1.3,0.3l3.3-2c-1.9-3.5-5.3-5.2-9.3-5.2c-6.1,0-11,4.4-11,10.9c0,6.4,4.8,10.9,10.9,10.9c4,0,7.4-1.7,9.4-5.2
	l-3.3-2C137.4,18.1,136.8,18.2,136.5,18.7 M102.9,34.6l-0.3-2.7h-4.3c-1.1,0-2,0.9-2,2v5.6c0,1.1,0.9,2,2,2h4.3l0.3-2.7h-3.5v-1h3
	v-2.5h-3v-0.9H102.9z M139,31.9c-0.3,0-0.5,0.2-0.5,0.5v5.4c0,0,0,0,0,0c0,1.5-2.3,1.5-2.3,0c0,0,0,0,0,0v-5.4
	c0-0.3-0.2-0.5-0.5-0.5h-2.7v5.2c0,3.1,1.6,4.7,4.5,4.7s4.1-1.7,4.1-4.7v-5.2H139z M118.5,31.9h-4.1v9.7h4.1c2.9,0,5-1.8,5-4.8
	C123.6,33.6,121.4,31.9,118.5,31.9 M118.2,38.8h-0.6v-4.2h0.7c1,0,1.8,0.8,1.8,2.1C120.1,38,119.3,38.8,118.2,38.8"/>
<path class="st0" d="M9.4,5.6c-0.9-0.9-0.9-2.3,0-3.2c0.9-0.9,2.3-0.9,3.2,0c0.9,0.9,0.9,2.3,0,3.2C11.8,6.5,10.3,6.5,9.4,5.6
	 M6,14.3c1.8,0,3.3-1.5,3.3-3.3c0-1.8-1.5-3.3-3.3-3.3s-3.3,1.5-3.3,3.3C2.6,12.8,4.1,14.3,6,14.3 M9.3,21.9c0-2.6-2.1-4.6-4.6-4.6
	S0,19.4,0,21.9c0,2.6,2.1,4.6,4.6,4.6S9.3,24.5,9.3,21.9 M37.3,24.8l-3-5.4c-0.2-0.3-0.3-0.7-0.3-1.1c0-0.5,0.2-1,0.2-1.6
	C35.3,9.2,29,0,18.4,0c-1.2,0-2.1,0.9-2.1,2.1c0,1.2,0.9,2.1,2.1,2.1c0.1,0,0.2,0,0.3,0c0.1,0,0.2,0,0.3,0c1.2,0,2.1,0.9,2.1,2.1
	S20.2,8.4,19,8.4c-0.5,0-0.9-0.2-1.2-0.4c-0.6-0.4-1.3-0.7-2-0.7c-2,0-3.6,1.6-3.6,3.6c0,2,1.6,3.6,3.6,3.6c0.8,0,1.6-0.3,2.2-0.7
	c0.3-0.2,0.8-0.4,1.2-0.4c1.2,0,2.1,0.9,2.1,2.1c0,1.2-0.9,2.1-2.1,2.1c-0.2,0-0.5,0-0.7-0.1c-0.5-0.2-1.1-0.3-1.7-0.3
	c-2.6,0-4.8,2.1-4.8,4.8c0,2,1.2,3.7,3,4.4c0.9,0.4,1.5,1.3,1.5,2.3c0,1.4-1.1,2.5-2.5,2.5c-0.6,0-1.2-0.2-1.7-0.6
	c-0.9-0.9-2.1-1.4-3.5-1.4c-2.8,0-5,2.2-5,5c0,2.8,2.2,5,5,5c3.2,0,4.6-1.2,5.9-1.2c0.7,0,1.3,0.6,1.3,1.3v0c0,0,0,0,0,0
	c0,3.7-1.4,5.5-5.4,5.5v1h16.2v-1c-4,0-5.4-1.8-5.4-5.5c0,0,0,0,0,0c0-0.7,0.6-1.3,1.3-1.3c2,0,2.3,0.6,5.5,0.6
	c2.9,0,4.6-0.9,5.3-3.5c0.6-2.4,1.4-6.1,1.4-6.1c0.1-0.4,0.5-0.8,0.9-0.9c1-0.2,1.7-1.1,1.7-2.1C37.5,25.4,37.4,25.1,37.3,24.8"/>
</svg>
