<?xml version="1.0" encoding="UTF-8"?>
<svg xmlns="http://www.w3.org/2000/svg" version="1.1" viewBox="0 0 1186.7 1187.4">
  <defs>
    <style>
      .cls-1 {
        fill: #be1e2d;
      }

      .cls-2 {
        fill: #f8e8ea;
      }
    </style>
  </defs>
  <!-- Generator: Adobe Illustrator 28.6.0, SVG Export Plug-In . SVG Version: 1.2.0 Build 709)  -->
  <g>
    <g id="Layer_1">
      <path class="cls-1" d="M1112,525.9c-15.4-20.9-20.8-47.5-14.6-72.7,8.7-35.2-5.4-72.1-35.2-92.7-21.4-14.7-35.1-38.2-37.4-64-3.2-36.1-28.5-66.5-63.4-76.2h0c-25-7-45.6-24.7-56.2-48.4-14.8-33.1-48.5-53.6-84.7-51.5h0c-25.9,1.5-51.1-8.6-68.9-27.6-24.7-26.5-63.3-34.9-96.9-21.2h0c-24,9.8-51.2,8.5-74.1-3.7-32-17-71.2-12.5-98.5,11.4h0c-19.5,17.1-45.6,24.6-71.3,20.5h0c-35.8-5.7-71.4,11.3-89.5,42.8h0c-12.9,22.5-35.2,38.1-60.7,42.6h0c-35.7,6.2-63.9,33.9-70.7,69.5-4.9,25.5-20.9,47.5-43.6,60-31.8,17.5-49.4,52.8-44.3,88.7,3.6,25.7-4.3,51.7-21.8,70.9h0c-24.4,26.9-29.6,66-13.1,98.3,11.8,23.1,12.7,50.3,2.4,74.1-14.3,33.3-6.6,72,19.5,97.2h0c18.7,18,28.3,43.4,26.4,69.3-2.7,36.2,17.2,70.2,50,85.6,23.5,11,40.9,31.9,47.4,57h0c9.2,35.1,39,60.9,75.1,64.7h0c25.8,2.8,49,16.9,63.4,38.5h0c20,30.2,56.7,44.9,92.1,36.8h0c25.3-5.8,51.9,0,72.5,15.9h0c28.8,22.1,68.2,24,99,5,22.1-13.7,49.1-16.8,73.7-8.5,34.4,11.5,72.3.6,95.3-27.5h0c16.4-20.1,41-31.8,66.9-32,36.3-.3,68.6-22.9,81.2-56.9,9-24.3,28.4-43.4,52.9-52h0c34.2-12,57.4-43.9,58.3-80.2h0c.6-25.9,12.8-50.3,33.2-66.3h0c28.5-22.5,40.1-60.2,29.1-94.8-7.8-24.7-4.2-51.7,9.8-73.5,19.6-30.5,18.3-70-3.2-99.1h-.1Z"/>
      <g>
        <path class="cls-2" d="M337.8,564.1h-77.6c-5.9,0-10.6,4.8-10.6,10.6v228.7c0,5.9,4.8,10.6,10.6,10.6h77.6c32.5,0,58.9-26.4,58.9-58.9h0v-131.8c0-32.8-26.4-59.2-58.9-59.2ZM352.4,755.1c0,8.2-6.4,15-14.6,15h-44.3v-161.7h44.3c8.2,0,14.6,6.8,14.6,15v131.7Z"/>
        <path class="cls-2" d="M399.3,373.5h-14.3c-3.6,0-6.6,2.9-6.6,6.6v112.9c0,5.2-4,9.4-9.4,9.4h-18.3c-5.1,0-9.2-4.1-9.2-9.2v-113.1c0-3.6-2.9-6.6-6.6-6.6h-14.3c-3.6,0-6.6,2.9-6.6,6.6v112.9c0,5.2-4.2,9.4-9.4,9.4h-18.1c-5.2,0-9.4-4.2-9.4-9.4v-112.9c0-3.6-2.9-6.6-6.6-6.6h-14.3c-3.6,0-6.6,2.9-6.6,6.6v112.9c0,20.4,16.5,36.9,36.9,36.9h18.1c8.7,0,16.3-3.3,23.2-8.7,6.5,5.3,14.3,8.7,23,8.7h18.1c20.4,0,36.9-16.5,36.9-36.9h0s0-112.9,0-112.9c0-3.6-2.9-6.6-6.6-6.6Z"/>
        <path class="cls-2" d="M654.2,530h14.5c3.6,0,6.6-2.9,6.6-6.6v-57.7h8.5c.6,2,8,18.3,14.5,33.7,3.1,7.5,6.7,15.7,10.6,24.6,1.6,3.7,5.1,6,9.1,6h16.3c3.3,0,5.4-3.4,4.1-6.3-4-9-7.5-17.2-10.8-24.6-6.9-15.8-14.1-32.4-15.4-35.5,16.1-4.3,27.3-17.9,27.3-34.9v-18.1c0-20.6-16.6-37.1-36.9-37.1h-48.3c-3.6,0-6.6,2.9-6.6,6.6h0v143.3c0,3.6,2.9,6.6,6.6,6.6ZM675.4,401.1h27.3c5.2,0,9.2,4.3,9.2,9.4v18.1c0,5.2-4.1,9.4-9.2,9.4h-27.3v-36.9Z"/>
        <path class="cls-2" d="M457.2,473.6l1.8.4v49.2c0,3.6,2.9,6.6,6.6,6.6h14.5c3.6,0,6.6-2.9,6.6-6.6v-49.2l1.8-.4c17.9-2.9,30.4-18.3,30.4-36.2v-57.3c0-3.6-2.9-6.6-6.6-6.6h-14.5c-3.6,0-6.6,2.9-6.6,6.6v57.5c0,5.1-4.1,9.2-9.2,9.2h-18.1c-5.2,0-9.4-4.2-9.4-9.4v-57.3c0-3.6-2.9-6.6-6.6-6.6h-14.3c-3.6,0-6.6,2.9-6.6,6.6h0s0,57.3,0,57.3c0,17.9,12.8,33.3,30.2,36.2Z"/>
        <path class="cls-2" d="M577.4,623.4c0-32.8-26.4-59.2-58.9-59.2h-29.3c-32.5,0-58.9,26.4-58.9,59.2v180c0,5.9,4.8,10.6,10.6,10.6h23.2c5.9,0,10.6-4.8,10.6-10.6v-91.5h58.9v91.5c0,5.9,4.8,10.6,10.6,10.6h22.8c5.9,0,10.6-4.8,10.6-10.6h-.2v-180ZM533.7,667.3h-58.9v-43.9c0-8.6,6.4-15,14.6-15h29.3c8.2,0,15,6.4,15,15v43.9Z"/>
        <path class="cls-2" d="M634.4,428.6v-18.3c0-20.4-16.5-36.9-36.9-36.9h-48.6c-3.6,0-6.6,2.9-6.6,6.6v143.2c0,3.6,2.9,6.6,6.6,6.6h14.5c3.6,0,6.6-2.9,6.6-6.6v-57.7h27.5c20.4,0,36.9-16.3,36.9-36.9ZM606.7,428.6c0,5.2-4.1,9.4-9.2,9.4h-27.7v-37.1h27.7c5.2,0,9.2,4.3,9.2,9.4v18.3Z"/>
        <path class="cls-2" d="M765.2,623c0-32.5-26.4-58.9-58.9-58.9h-77.6c-5.9,0-10.6,4.8-10.6,10.6v228.7c0,5.9,4.8,10.6,10.6,10.6h23.2c5.9,0,10.6-4.8,10.6-10.6v-195.4h43.5c8.3,0,15,6.8,15,15v180.4c0,5.9,4.8,10.6,10.6,10.6h23.2c5.9,0,10.6-4.8,10.6-10.6h-.2v-180.4Z"/>
        <path class="cls-2" d="M762.4,401.1h39c-1.8,4.7-13.4,30.2-24.1,55.2-5.6,12.7-11.7,26.6-18.4,41.7-2,4.4-3,9.3-3,14.2v11c0,3.6,2.9,6.6,6.6,6.6h-.1c0,0,63.9,0,63.9,0,3.6,0,6.6-2.9,6.6-6.6v-14.5c0-3.6-2.9-6.6-6.6-6.6h-38.7c1.8-4.3,13.2-30,23.9-55,5.5-12.3,11.4-25.9,17.9-40.7,2.3-5.3,3.5-11,3.5-16.8v-9.7c0-3.6-2.9-6.6-6.6-6.6h-63.9c-3.6,0-6.6,2.9-6.6,6.6v14.5c0,3.6,2.9,6.6,6.6,6.6Z"/>
        <path class="cls-2" d="M926.5,564.3h-107.7c-5.9,0-10.6,4.8-10.6,10.6v228.7c0,5.9,4.8,10.6,10.6,10.6h107.7c5.9,0,10.6-4.8,10.6-10.6v-22.8c0-5.9-4.8-10.6-10.6-10.6h-74v-58.9h38.7c5.9,0,10.6-4.8,10.6-10.6v-23.2c0-5.9-4.8-10.6-10.6-10.6h-38.7v-58.5h74c5.9,0,10.6-4.8,10.6-10.6v-22.9c0-5.9-4.8-10.6-10.6-10.6Z"/>
        <path class="cls-2" d="M930.5,401.1c3.6,0,6.6-2.9,6.6-6.6v-14.5c0-3.6-2.9-6.6-6.6-6.6h-67.4c-3.6,0-6.6,2.9-6.6,6.6v143.2c0,3.6,2.9,6.6,6.6,6.6h67.4c3.6,0,6.6-2.9,6.6-6.6v-14.3c0-3.6-2.9-6.6-6.6-6.6h-46.3v-36.9h24.2c3.6,0,6.6-2.9,6.6-6.6v-14.5c0-3.6-2.9-6.6-6.6-6.6h-24.2v-36.6h46.3Z"/>
      </g>
    </g>
  </g>
</svg>