<svg xmlns="http://www.w3.org/2000/svg" viewBox="0 0 83.4 300" style="enable-background:new 0 0 83.4 300" xml:space="preserve"><path d="M62.7 0c1.5 0 2.3.8 2.3 2.3V4c0 1.4-.8 2.2-2.3 2.2h-5.3c-1.8 0-3.3-.4-3.3-.4V6c6.3 2.3 12.1 9.8 12.1 17 0 8.6-4 13-11.6 14.3v.2c5.9 2.6 11.6 9.3 11.6 17 0 11.2-6.5 15.4-18 15.4H20.9c-1.5 0-2.3-.8-2.3-2.3V66c0-1.5.8-2.3 2.3-2.3h25.6c7.6 0 13.8-1.6 13.8-9.9 0-9.3-9.8-15.6-19.3-15.6H20.9c-1.5 0-2.3-.7-2.3-2.2v-1.8c0-1.5.8-2.3 2.3-2.3h25.6c7 0 13.8-1 13.8-9.8 0-9.4-9.9-15.8-19.3-15.8H20.9c-1.5 0-2.3-.7-2.3-2.2V2.3c0-1.5.8-2.3 2.3-2.3h41.8zm15.1 83.3h3.3c1.5 0 2.3.7 2.3 2.2v2.3c0 1.5-.8 2.2-2.3 2.2h-3.3c-1.5 0-2.2-.7-2.2-2.2v-2.3c0-1.5.7-2.2 2.2-2.2zm-15.1.2c1.5 0 2.3.8 2.3 2.3v1.8c0 1.5-.8 2.2-2.3 2.2H20.9c-1.5 0-2.3-.7-2.3-2.2v-1.8c0-1.5.8-2.3 2.3-2.3h41.8zm3.4 40.3c0 12.3-8.9 19.3-22.1 19.3-1.3 0-2.3-1-2.3-2.4v-33.3c-11.8.3-18.5 8.4-18.5 18 0 5.8 2.6 10 4.2 12.2.8 1.3.6 2.3-.6 3l-1.1.7c-1.1.6-2.2.5-3-.6-1.8-2.5-5.2-8-5.2-15.5 0-13.8 9.9-24.2 24.2-24.2 15.3 0 24.4 10.3 24.4 22.8zm-19.7 13c9.8-.4 14.6-6.3 14.6-13.2 0-7.7-5.2-14.5-14.6-15.9v29.1zM26 151.3l.9.7c1.1.8 1.2 1.8.4 3.1-1.6 2-4.2 6.3-4.2 12.3 0 5.2 2.6 9.4 7.5 9.4 10.4 0 7.3-24.8 22.6-24.8 8.6 0 13 7.3 13 15.8 0 6.6-2.4 10.8-3.8 12.7-.7 1.2-1.8 1.4-3 .6l-1-.6c-1.3-.7-1.4-1.8-.6-3.1 1.2-1.8 2.9-5.1 2.9-9.9 0-4.9-2.1-9.1-7.2-9.1-10.7 0-7.3 24.7-22.8 24.7-7.6 0-13.1-6.4-13.1-15.7 0-8.1 3.4-13.4 5.3-15.7.8-1.2 1.9-1.3 3.1-.4zm51.8 42.3h3.3c1.5 0 2.3.7 2.3 2.2v2.3c0 1.5-.8 2.2-2.3 2.2h-3.3c-1.5 0-2.2-.7-2.2-2.2v-2.3c0-1.4.7-2.2 2.2-2.2zm-15.1.2c1.5 0 2.3.8 2.3 2.3v1.8c0 1.5-.8 2.2-2.3 2.2H20.9c-1.5 0-2.3-.7-2.3-2.2v-1.8c0-1.5.8-2.3 2.3-2.3h41.8zM47 238.7v2.7h1.5c8.9 0 12-4.9 12-11.4 0-5.2-1.9-9.1-3.2-11.2-.6-1.3-.5-2.3.7-3.1l.9-.6c1.2-.7 2.4-.6 3.1.6 1.5 2.4 4.1 7.6 4.1 14.7 0 11.1-6.2 17.2-17.8 17.2H20.9c-3.6 0-5.9-7-11.5-7-2.8 0-3.9 2.5-4.4 4.2-.4 1.1-1.1 1.5-2.3 1.2l-1-.1c-1.3-.3-1.8-1.2-1.7-2.4.6-3 2.5-8.7 8.3-8.7 5 0 9.2 4.5 11.1 7.2.3-.4.8-.5 1.6-.5h3.7c2.1 0 3.5.3 3.5.3v-.2c0 .1-10.6-4.1-10.6-15.7 0-7.8 4.6-15.7 13.5-15.7 15.1.2 15.9 19.6 15.9 28.5zm-24.2-11.5c0 8.9 9.2 14.2 17.3 14.2h2.2v-2.6c0-7.3-.3-21.9-10.7-21.9-4.3 0-8.8 3.4-8.8 10.3zm43.3 55.3c0 7.9-3.4 13.1-5.3 15.4-.8 1.1-1.9 1.2-3.1.3l-1-.6c-1.3-.8-1.3-1.8-.5-3.1 1.6-2 4.2-6.1 4.2-11.7 0-10.1-7.6-18.1-18.7-18.1-11 0-18.6 7.9-18.6 18.1 0 6.4 3 10.9 4.9 13.1.9 1.2.7 2.2-.6 3l-.9.6c-1.2.7-2.2.5-3.1-.6-1.9-2.4-5.9-7.9-5.9-16.5 0-13.8 9.9-24.3 24.2-24.3 14.3.1 24.4 10.7 24.4 24.4z" style="fill:#414141"/></svg>