<svg xmlns="http://www.w3.org/2000/svg" viewBox="0 0 83.4 300" style="enable-background:new 0 0 83.4 300" xml:space="preserve"><path d="M26.1 191.8c0-11.2 9.3-15.2 9.3-15.2v-.2s-1.6.3-3.5.3H11.1c-1.5 0-2.3-.8-2.3-2.3v-1.7c0-1.5.8-2.2 2.3-2.2h60.2c1.5 0 2.3.7 2.3 2.2v1.6c0 1.5-.7 2.3-2.2 2.3h-3.5c-1.7 0-2.9-.4-2.9-.4v.2s9.7 4 9.7 16.1c0 12.4-9.9 20.2-24.3 20.2-14.7-.1-24.3-8.7-24.3-20.9zm43-.3c0-7.7-5.5-15-18.7-15-9.4 0-18.5 4.8-18.5 14.7 0 8.2 6.8 14.9 18.5 14.9 11.4.1 18.7-5.9 18.7-14.6zm1.8-31.4c-1.1 0-1.8-.3-2.7-.9L37 134.3c-2.3-1.8-4.2-3.7-4.2-3.7h-.2s.2 1.6.2 4.6v21.6c0 1.5-.8 2.2-2.2 2.2h-1c-1.5 0-2.3-.7-2.3-2.2v-32.4c0-1.5.7-2.2 2-2.2h.6c1.1 0 1.8.3 2.7.9l31.2 25c2.3 1.8 4.2 3.8 4.2 3.8h.2s-.2-1.7-.2-4.7v-23.7c0-1.5.8-2.2 2.2-2.2h1c1.5 0 2.3.7 2.3 2.2V158c0 1.5-.7 2.2-2 2.2h-.6zm-56.5-49h-3.3c-1.5 0-2.3-.7-2.3-2.2v-2.3c0-1.5.8-2.2 2.3-2.2h3.3c1.5 0 2.2.7 2.2 2.2v2.3c0 1.5-.7 2.2-2.2 2.2zm15.1-.2c-1.5 0-2.3-.8-2.3-2.3v-1.8c0-1.5.8-2.2 2.3-2.2h41.7c1.5 0 2.3.7 2.3 2.2v1.8c0 1.5-.8 2.3-2.3 2.3H29.5zm-3.4-40.3c0-12.3 8.9-19.3 22.1-19.3 1.3 0 2.3 1 2.3 2.4V87C62.3 86.7 69 78.6 69 69c0-5.8-2.6-10-4.2-12.2-.8-1.3-.6-2.3.6-3l1.1-.7c1.1-.6 2.2-.5 3 .6 1.8 2.5 5.2 8 5.2 15.5 0 13.8-9.9 24.2-24.2 24.2-15.2 0-24.4-10.3-24.4-22.8zm19.7-13c-9.8.4-14.6 6.3-14.6 13.2 0 7.7 5.2 14.5 14.6 15.9V57.6zM17.1 20.7l-6.8-4.1C9.2 16 8.7 15.3 8.7 14v-2.1c0-1.9 1.2-2.4 2.8-1.3l6.7 4.9c1 .7 1.5 1.6 1.5 2.8v1c0 1.7-1.2 2.3-2.6 1.4zm12.4 19.6c-1.5 0-2.3-.8-2.3-2.3v-1.7c0-1.4.8-2.2 2.3-2.2h5.3c1.8 0 3.3.4 3.3.4v-.2C33.9 32.5 26 26.5 26 15.6 26.1 4.1 32.7 0 44.1 0h27.2c1.5 0 2.3.8 2.3 2.3v1.8c0 1.5-.8 2.2-2.3 2.2H45.8C38.5 6.3 32 7.5 32 16.4 32 26.3 40.1 34 50.9 34h20.4c1.5 0 2.3.7 2.3 2.2V38c0 1.5-.8 2.3-2.3 2.3H29.5z" style="fill:#414141"/></svg>