<svg version="1.1" id="Layer_1" xmlns="http://www.w3.org/2000/svg" x="0" y="0" viewBox="0 0 300 300" style="enable-background:new 0 0 300 300" xml:space="preserve"><style>.st0{fill:#fff}</style><path class="st0" d="M219.8 52.7H80.2C65 52.7 52.7 65 52.7 80.2v14.2h194.5V80.2c.1-15.1-12.3-27.5-27.4-27.5zM150 167.3c4.2 0 7.6-3.4 7.6-7.6 0-4.2-3.4-7.6-7.6-7.6-4.2 0-7.6 3.4-7.6 7.6 0 4.1 3.4 7.6 7.6 7.6zm-34.3 0c4.2 0 7.6-3.4 7.6-7.6 0-4.2-3.4-7.6-7.6-7.6s-7.6 3.4-7.6 7.6c0 4.1 3.4 7.6 7.6 7.6zm34.3 31.4c4.2 0 7.6-3.4 7.6-7.6 0-4.2-3.4-7.6-7.6-7.6-4.2 0-7.6 3.4-7.6 7.6 0 4.2 3.4 7.6 7.6 7.6zm0 31.5c4.2 0 7.6-3.4 7.6-7.6 0-4.2-3.4-7.6-7.6-7.6-4.2 0-7.6 3.4-7.6 7.6 0 4.2 3.4 7.6 7.6 7.6zm0-94.4c4.2 0 7.6-3.4 7.6-7.6s-3.4-7.6-7.6-7.6c-4.2 0-7.6 3.4-7.6 7.6s3.4 7.6 7.6 7.6zm34.3 47.7c-4.2 0-7.6 3.4-7.6 7.6 0 4.2 3.4 7.6 7.6 7.6 4.2 0 7.6-3.4 7.6-7.6 0-4.2-3.4-7.6-7.6-7.6zm34.2-47.7c4.2 0 7.6-3.4 7.6-7.6s-3.4-7.6-7.6-7.6c-4.2 0-7.6 3.4-7.6 7.6s3.4 7.6 7.6 7.6zm0 31.5c4.2 0 7.6-3.4 7.6-7.6 0-4.2-3.4-7.6-7.6-7.6-4.2 0-7.6 3.4-7.6 7.6 0 4.1 3.4 7.6 7.6 7.6zm-34.2-31.5c4.2 0 7.6-3.4 7.6-7.6s-3.4-7.6-7.6-7.6c-4.2 0-7.6 3.4-7.6 7.6s3.4 7.6 7.6 7.6zm34.2 62.9c4.2 0 7.6-3.4 7.6-7.6 0-4.2-3.4-7.6-7.6-7.6-4.2 0-7.6 3.4-7.6 7.6 0 4.2 3.4 7.6 7.6 7.6zm-102.8-62.9c4.2 0 7.6-3.4 7.6-7.6s-3.4-7.6-7.6-7.6-7.6 3.4-7.6 7.6 3.4 7.6 7.6 7.6z"/><circle class="st0" cx="81.5" cy="159.6" r="7.6"/><path class="st0" d="M81.5 198.7c4.2 0 7.6-3.4 7.6-7.6 0-4.2-3.4-7.6-7.6-7.6s-7.6 3.4-7.6 7.6c-.1 4.2 3.3 7.6 7.6 7.6z"/><path class="st0" d="M52.7 219.8c0 15.2 12.3 27.5 27.5 27.5h139.5c15.2 0 27.5-12.3 27.5-27.5V105.4H52.7v114.4zm131.6-16.1c-7 0-12.6-5.7-12.6-12.6s5.7-12.6 12.6-12.6 12.6 5.7 12.6 12.6-5.7 12.6-12.6 12.6zm34.2-88.2c7 0 12.6 5.7 12.6 12.6s-5.7 12.6-12.6 12.6-12.6-5.7-12.6-12.6 5.7-12.6 12.6-12.6zm0 31.5c7 0 12.6 5.7 12.6 12.6s-5.7 12.6-12.6 12.6-12.6-5.7-12.6-12.6 5.7-12.6 12.6-12.6zm0 31.5c7 0 12.6 5.7 12.6 12.6s-5.7 12.6-12.6 12.6-12.6-5.7-12.6-12.6 5.7-12.6 12.6-12.6zm-34.2-63c7 0 12.6 5.7 12.6 12.6s-5.7 12.6-12.6 12.6-12.6-5.7-12.6-12.6 5.6-12.6 12.6-12.6zm-12.3 42c1.2-1.2 3.1-1.2 4.2 0l7.3 7.3 8.6-15.5c.8-1.5 2.6-2 4.1-1.2 1.5.8 2 2.6 1.2 4.1l-10.5 19c-.5.8-1.3 1.4-2.2 1.5h-.4c-.8 0-1.6-.3-2.1-.9l-10.2-10c-1.1-1.2-1.1-3.1 0-4.3zm-22-42c7 0 12.6 5.7 12.6 12.6s-5.7 12.6-12.6 12.6-12.6-5.7-12.6-12.6 5.6-12.6 12.6-12.6zm0 31.5c7 0 12.6 5.7 12.6 12.6s-5.7 12.6-12.6 12.6-12.6-5.7-12.6-12.6S143 147 150 147zm0 31.5c7 0 12.6 5.7 12.6 12.6s-5.7 12.6-12.6 12.6-12.6-5.7-12.6-12.6 5.6-12.6 12.6-12.6zm0 31.5c7 0 12.6 5.7 12.6 12.6s-5.7 12.6-12.6 12.6-12.6-5.7-12.6-12.6S143 210 150 210zm-34.3-94.5c7 0 12.6 5.7 12.6 12.6s-5.7 12.6-12.6 12.6c-7 0-12.6-5.7-12.6-12.6s5.7-12.6 12.6-12.6zm0 31.5c7 0 12.6 5.7 12.6 12.6s-5.7 12.6-12.6 12.6c-7 0-12.6-5.7-12.6-12.6s5.7-12.6 12.6-12.6zm0 31.5c7 0 12.6 5.7 12.6 12.6s-5.7 12.6-12.6 12.6c-7 0-12.6-5.7-12.6-12.6s5.7-12.6 12.6-12.6zm0 31.5c7 0 12.6 5.7 12.6 12.6s-5.7 12.6-12.6 12.6c-7 0-12.6-5.7-12.6-12.6s5.7-12.6 12.6-12.6zm-34.2-63c7 0 12.6 5.7 12.6 12.6s-5.7 12.6-12.6 12.6-12.6-5.7-12.6-12.6S74.5 147 81.5 147zm0 31.5c7 0 12.6 5.7 12.6 12.6s-5.7 12.6-12.6 12.6-12.6-5.7-12.6-12.6 5.6-12.6 12.6-12.6zm0 31.5c7 0 12.6 5.7 12.6 12.6s-5.7 12.6-12.6 12.6-12.6-5.7-12.6-12.6S74.5 210 81.5 210z"/><path class="st0" d="M81.5 230.2c4.2 0 7.6-3.4 7.6-7.6 0-4.2-3.4-7.6-7.6-7.6s-7.6 3.4-7.6 7.6c-.1 4.2 3.3 7.6 7.6 7.6zm34.2 0c4.2 0 7.6-3.4 7.6-7.6 0-4.2-3.4-7.6-7.6-7.6s-7.6 3.4-7.6 7.6c0 4.2 3.4 7.6 7.6 7.6zm0-31.5c4.2 0 7.6-3.4 7.6-7.6 0-4.2-3.4-7.6-7.6-7.6s-7.6 3.4-7.6 7.6c0 4.2 3.4 7.6 7.6 7.6z"/></svg>