<svg xmlns="http://www.w3.org/2000/svg" viewBox="0 0 868.48 866.54" style="enable-background:new 0 0 868.48 866.54" xml:space="preserve"><path d="M577.07 626.23c10.42 3.12 20.13-6.21 17.53-16.75-.4-1.61-1.01-3.18-1.64-4.71-5.57-13.57-11.07-27.16-16.83-40.64-1.21-2.82-3.09-5.53-5.24-7.74-8.82-9.09-17.85-17.97-26.81-26.93-14.61-14.61-29.23-29.21-43.81-43.86-1.18-1.19-2.98-2.12-2.82-4.81h5.57c11.17 0 22.33.13 33.5-.03 41.83-.61 73.85-33.07 73.88-74.8.02-29.33.02-58.66 0-87.99-.03-36.97-25.95-67.57-62.33-73.38-5.24-.84-10.61-1.07-15.93-1.14-13.33-.16-26.66-.04-40-.07-1.95 0-3.91-.18-6.53-.31-.1-7.11-.19-13.83-.29-20.88h-84.47c-1.2 6.95.25 13.97-1 21.2h-6.48c-13.5 0-27-.26-40.49.11-7.12.19-14.39.76-21.29 2.41-32.81 7.84-56.08 37.64-56.11 71.54-.06 78.66-.03 157.32.01 235.98 0 3.48.34 6.99.8 10.45 3.83 28.78 29.39 52.93 58.36 55.17 1.91.15 3.84.02 6.49.02V324.53c0-1.67-.02-3.33.01-5 .16-7.2 3.19-10.22 10.52-10.28 8.5-.07 17-.04 25.5 0 1.44.01 2.88.28 4.83.49.11 7.04.21 13.76.32 20.28 5.75 1.28 116.95 1.11 121.28-.14.11-1.46.31-3.08.34-4.7.06-3.5-.01-7 .03-10.5.06-5.26.18-5.41 5.29-5.44 7.5-.05 15-.02 22.5-.01 10.84.01 13.22 2.36 13.22 13.2.01 26.5 0 52.99 0 79.49 0 1.33.04 2.67-.06 4-.46 5.79-3.46 8.8-9.19 9.18-1.99.13-4 .07-6 .07-37.83 0-75.66-.04-113.49.03-16.76.03-30.35 11.73-32.59 28.06-1.56 11.35 2.22 20.95 10.28 29.01 43.62 43.59 87.18 87.22 130.86 130.74 2.17 2.16 5.02 3.85 7.86 5.07 11.63 5 23.38 9.74 35.09 14.55 3.1 1.27 6.15 2.65 9.33 3.6zm-8.26-40.24c2.39 2.42 9.69 19.32 11.11 26.36l-25.93-10.68c1.93-3.71 9.81-11.92 14.82-15.68zm94.41-482.02c1.49.07 2.97.2 5.33.35-1.26 1.35-1.97 2.33-2.87 3.05-7.4 5.96-14.83 11.86-22.26 17.79-4.39 3.5-4.38 3.5-2.94 8.72 2.4 8.67 4.8 17.34 7.17 26.02.43 1.57.74 3.17 1.3 5.6-1.78-.88-2.93-1.32-3.94-1.98-7.94-5.2-16-10.25-23.72-15.78-3.48-2.49-5.96-2.21-9.28.13-7.34 5.19-14.95 10.01-22.47 14.95-1.34.88-2.76 1.65-4.99 2.96.52-2.49.77-4.08 1.19-5.62 2.45-9 4.79-18.04 7.5-26.96 1.04-3.44.29-5.49-2.54-7.62-6.92-5.21-13.6-10.73-20.37-16.14-1.67-1.34-3.31-2.72-4.96-4.09l.3-1.09c5.44-.33 10.87-.69 16.31-.97 5.66-.3 11.31-.65 16.97-.74 2.96-.04 4.48-1.3 5.46-4.03 3.34-9.24 6.86-18.42 10.34-27.62.46-1.21 1.07-2.36 1.96-4.27.9 1.96 1.58 3.21 2.08 4.53 3.36 8.88 6.79 17.74 9.95 26.69 1.16 3.3 2.95 4.69 6.52 4.78 9.34.26 18.65.87 27.96 1.34zm-1.76 630.36c1.72.08 3.43.34 6.23.64-1.99 1.79-3.02 2.82-4.15 3.72-7.4 5.95-14.77 11.94-22.28 17.75-2.47 1.91-3.12 3.83-2.23 6.85 2.64 8.95 5.03 17.97 7.49 26.96.43 1.57.74 3.17 1.28 5.54-1.64-.73-2.67-1.03-3.52-1.59-8.23-5.37-16.52-10.67-24.61-16.25-2.92-2.01-5.18-2.05-8.09-.03-7.53 5.22-15.24 10.17-22.9 15.21-1.36.89-2.78 1.69-4.17 2.53-.33-.22-.65-.44-.98-.66 1.41-5.26 2.8-10.53 4.23-15.79 1.4-5.14 2.67-10.33 4.34-15.39 1.1-3.34.46-5.49-2.41-7.66-7.18-5.42-14.12-11.15-21.13-16.78-1.38-1.11-2.67-2.33-4.99-4.37 2.98-.32 4.7-.6 6.43-.68 9.15-.43 18.3-.93 27.46-1.15 3.13-.08 4.83-1.23 5.89-4.17 3.21-8.93 6.63-17.8 9.99-26.68.56-1.48 1.27-2.9 2.34-5.34 1.08 2.55 1.77 4.02 2.34 5.54 3.3 8.73 6.67 17.43 9.78 26.22 1.11 3.15 2.82 4.39 6.2 4.45 9.16.17 18.31.7 27.46 1.13zM201.64 104.3c5.25-.33 10.5-.69 15.75-.98 5.49-.29 10.99-.78 16.47-.67 4.12.08 5.84-1.83 7.09-5.43 2.95-8.5 6.24-16.87 9.42-25.29.58-1.52 1.26-3.01 2.27-5.38.96 2.03 1.64 3.25 2.13 4.54 3.36 8.88 6.79 17.74 9.96 26.69 1.15 3.24 2.81 4.78 6.45 4.87 9.32.22 18.63.84 27.95 1.32 1.59.08 3.18.26 6 .51-2.21 1.86-3.53 3.02-4.91 4.11-6.9 5.51-13.82 11-20.73 16.48-4.46 3.53-4.45 3.52-2.89 9.18 2.4 8.67 4.79 17.34 7.16 26.02.39 1.42.66 2.88 1.18 5.16-1.69-.8-2.84-1.2-3.83-1.85-8.22-5.39-16.49-10.71-24.57-16.31-2.76-1.91-4.81-1.96-7.58-.02-7.23 5.06-14.68 9.82-22.05 14.67-1.78 1.17-3.6 2.26-5.4 3.39-.31-.27-.62-.53-.92-.8 1.79-6.56 3.57-13.12 5.36-19.68 1.1-4.02 2.08-8.08 3.38-12.02.97-2.95.4-4.91-2.14-6.85-7.41-5.66-14.64-11.57-21.93-17.39-1.38-1.07-2.69-2.23-3.62-4.27zm-35.68 131.97c1.58.08 3.14.35 5.83.67-2.11 1.88-3.27 3.01-4.52 4.02-7.14 5.74-14.2 11.59-21.51 17.11-2.88 2.18-3.43 4.3-2.42 7.65 2.64 8.77 4.95 17.64 7.36 26.48.43 1.57.76 3.18 1.34 5.62-1.75-.83-2.91-1.23-3.91-1.88-7.39-4.84-14.74-9.73-22.11-14.59-7.54-4.97-5.57-4.36-12.53.09-7.16 4.57-14.19 9.35-21.29 14.01-1.19.78-2.47 1.41-4.65 2.64.62-2.72.96-4.46 1.43-6.17 2.42-8.84 4.75-17.7 7.39-26.47.96-3.2.38-5.19-2.32-7.25-7.43-5.64-14.63-11.57-21.91-17.41-1.14-.91-2.2-1.92-3.44-3.01 1.35-1.89 3.14-1.41 4.66-1.48 9.15-.45 18.3-1.05 27.46-1.14 4.07-.04 5.89-1.63 7.16-5.33 2.91-8.51 6.22-16.88 9.4-25.29.57-1.52 1.29-2.99 2.34-5.39 1.02 2.11 1.73 3.33 2.22 4.63 3.37 8.88 6.81 17.73 9.99 26.68 1.18 3.32 3.02 4.62 6.59 4.68 9.13.14 18.28.69 27.44 1.13zM387.53 61.34c-1.26-1.01-2.44-2.12-3.84-3.34 1.66-1.95 3.6-1.56 5.3-1.64 8.98-.43 17.96-.95 26.94-1.08 3.75-.06 5.63-1.46 6.85-4.98 2.93-8.5 6.23-16.87 9.39-25.28.63-1.66 1.34-3.3 3.02-4.99.62 1.44 1.29 2.87 1.85 4.33 3.3 8.72 6.7 17.41 9.77 26.21 1.17 3.36 2.98 4.64 6.53 4.7 8.98.15 17.96.65 26.94 1.08 1.73.08 3.45.43 6.36.8-2.11 1.9-3.24 3.03-4.48 4.02-7.14 5.73-14.22 11.54-21.5 17.1-2.82 2.16-3.42 4.29-2.39 7.69 2.67 8.76 4.95 17.63 7.36 26.46.42 1.55.72 3.14 1.3 5.7-2.07-1.12-3.36-1.7-4.52-2.46-7.53-4.92-15.02-9.88-22.53-14.83-5.58-3.68-4.75-3.63-10.46.12-7.23 4.76-14.45 9.54-21.69 14.28-1.35.88-2.78 1.64-4.17 2.46-.31-.26-.61-.52-.92-.78 1.08-3.98 2.14-7.97 3.24-11.95 1.73-6.26 3.24-12.59 5.3-18.74 1.29-3.86.17-6.11-2.9-8.43-7.06-5.3-13.87-10.93-20.75-16.45zm-87.26 673.01c1.44.07 2.87.37 5.47.72-2.06 1.85-3.29 3.06-4.63 4.14-7.15 5.74-14.23 11.55-21.53 17.09-2.71 2.06-3.22 4.1-2.28 7.26 2.61 8.78 4.94 17.65 7.35 26.49.47 1.71.8 3.45 1.44 6.26-2.31-1.38-3.71-2.14-5.04-3.01-7.79-5.13-15.63-10.19-23.32-15.48-2.73-1.88-4.89-1.95-7.67-.04-7.83 5.37-15.83 10.5-23.78 15.7-1.2.79-2.5 1.44-4.64 2.67.53-2.5.79-4.07 1.21-5.6 2.46-9 4.84-18.02 7.51-26.96.96-3.19.4-5.22-2.29-7.27-7.41-5.67-14.63-11.59-21.9-17.43-1.23-.99-2.38-2.08-4.53-3.96 3.08-.29 4.83-.52 6.6-.61 9.15-.42 18.3-.92 27.46-1.15 3.14-.08 4.8-1.25 5.85-4.2 3.13-8.79 6.48-17.5 9.77-26.23.58-1.53 1.25-3.02 2.31-5.55 1.03 2.06 1.76 3.23 2.24 4.49 3.14 8.25 6.24 16.52 9.33 24.79 2.82 7.56 2.38 6.41 9.09 6.71 8.67.39 17.33.75 25.98 1.17zm182.35 50.59c.92.05 1.84.33 3.79.7-1.94 1.73-3.19 2.95-4.54 4.04-7.14 5.73-14.26 11.51-21.5 17.11-2.44 1.88-3.17 3.76-2.26 6.82 2.66 8.93 5.03 17.96 7.48 26.96.43 1.56.7 3.16 1.25 5.64-1.9-.94-3.07-1.37-4.08-2.04-8.09-5.28-16.23-10.49-24.18-15.97-2.74-1.89-4.8-2.01-7.59-.07-7.66 5.31-15.53 10.33-23.33 15.44-1.31.86-2.71 1.59-5.04 2.94.57-2.7.83-4.3 1.25-5.84 2.4-8.84 4.69-17.71 7.36-26.47 1.04-3.4.41-5.52-2.41-7.67-7.28-5.55-14.37-11.36-21.52-17.08-1.29-1.03-2.53-2.12-4.36-3.66 1.58-.38 2.57-.77 3.57-.83 9.97-.55 19.95-1.18 29.93-1.47 3.37-.1 5.06-1.31 6.17-4.47 3.1-8.79 6.48-17.49 9.78-26.21.57-1.52 1.26-3 2.21-5.26.91 1.82 1.57 2.88 2 4.03 3.42 9.03 6.9 18.05 10.13 27.15 1.15 3.25 2.82 4.71 6.46 4.79 9.82.22 19.63.89 29.43 1.42zM67.47 462.58c-7.73 5.5-15.78 10.55-23.72 15.76-.94.61-1.97 1.09-4 2.19.53-2.62.78-4.32 1.22-5.96 2.36-8.68 4.58-17.4 7.25-25.98 1.2-3.86.23-6.1-2.89-8.43-6.81-5.07-13.36-10.49-20-15.79-1.53-1.22-2.99-2.54-5.26-4.49 2.1-.43 3.27-.83 4.45-.89 9.15-.45 18.3-1.02 27.45-1.16 4.48-.07 6.85-1.67 8.28-6.07 2.72-8.39 6.08-16.57 9.2-24.83.56-1.47 1.26-2.88 2.35-5.31 1.14 2.56 1.86 4.01 2.44 5.52 3.01 7.94 5.93 15.92 9 23.84 2.4 6.19.97 6.43 9.64 6.82 8.65.4 17.3.77 25.95 1.17 1.31.06 2.61.24 5.19.49-2.16 1.87-3.36 2.97-4.62 3.99-7.02 5.62-13.93 11.39-21.14 16.76-3.14 2.34-4.05 4.56-2.85 8.39 2.72 8.74 4.96 17.63 7.38 26.47.42 1.55.75 3.13 1.37 5.73-2.2-1.29-3.6-2.04-4.91-2.9-7.66-5.02-15.4-9.93-22.9-15.19-3.18-2.22-5.55-2.5-8.88-.13zm98.78 138.39c1.41.07 2.82.36 5.4.7-2.16 1.91-3.42 3.12-4.78 4.21-6.89 5.53-13.66 11.22-20.77 16.44-3.3 2.42-3.8 4.78-2.67 8.48 2.63 8.6 4.87 17.32 7.26 26 .44 1.59.8 3.19 1.4 5.62-1.69-.8-2.84-1.19-3.83-1.83-8.23-5.38-16.49-10.72-24.59-16.28-2.72-1.87-4.78-2.05-7.59-.08-7.65 5.34-15.52 10.36-23.32 15.48-1.32.86-2.71 1.61-5.17 3.05.68-3.04 1-4.78 1.46-6.49 2.41-8.84 4.76-17.7 7.35-26.49.88-2.99.3-4.92-2.21-6.84-7.28-5.57-14.39-11.36-21.54-17.09-1.35-1.08-2.59-2.3-4.73-4.21 2.65-.33 4.06-.6 5.47-.67 8.82-.42 17.64-.96 26.47-1.12 4.4-.08 6.91-1.5 8.35-5.98 2.7-8.4 6.08-16.58 9.2-24.84.56-1.49 1.26-2.93 2.35-5.43 1.13 2.54 1.86 3.98 2.43 5.48 3.07 8.1 6.38 16.13 9.03 24.37 1.54 4.8 4.2 6.43 9.06 6.45 8.66.05 17.32.66 25.97 1.07zm536.03-359.96c-1.26-1.01-2.42-2.14-4.55-4.04 2.67-.33 4.21-.63 5.76-.7 8.98-.43 17.97-1.02 26.96-1.12 3.95-.04 6.01-1.34 7.31-5.13 2.97-8.66 6.36-17.18 9.6-25.75.56-1.48 1.27-2.91 2.37-5.42 1.15 2.75 1.89 4.37 2.52 6.04 3.23 8.57 6.55 17.12 9.59 25.76 1.11 3.16 2.83 4.39 6.19 4.46 9.16.19 18.31.73 27.46 1.15 1.62.08 3.24.28 4.85.42.15.37.29.74.44 1.1-1.22 1.06-2.4 2.18-3.65 3.19-7.15 5.73-14.21 11.58-21.53 17.09-2.92 2.19-3.39 4.36-2.4 7.69 2.67 8.94 5.04 17.96 7.51 26.96.38 1.4.64 2.84 1.11 4.98-1.58-.69-2.62-.99-3.49-1.55-7.81-5.11-15.77-10.01-23.29-15.5-4.1-3-7.07-2.67-11.01.2-7.13 5.19-14.67 9.82-22.06 14.66-1.17.77-2.44 1.37-4.47 2.5.55-2.54.82-4.13 1.25-5.68 2.37-8.68 4.55-17.42 7.27-25.99 1.28-4.04.26-6.4-2.98-8.83-7.07-5.32-13.87-10.96-20.76-16.49zm93.9 359.97c1.41.07 2.81.35 5.42.7-2.32 2.02-3.71 3.33-5.21 4.53-6.89 5.51-13.73 11.1-20.77 16.42-2.84 2.15-3.47 4.3-2.44 7.69 2.65 8.76 4.96 17.63 7.38 26.47.42 1.55.68 3.14 1.27 5.96-2.38-1.4-3.76-2.14-5.07-3-7.94-5.21-15.91-10.36-23.74-15.73-2.46-1.69-4.34-1.61-6.74.02-7.85 5.33-15.82 10.5-23.75 15.71-1.36.89-2.78 1.69-4.9 2.98.32-2 .41-3.23.73-4.4 2.58-9.48 5.08-18.99 7.88-28.4.96-3.22.28-5.15-2.4-7.19-7.68-5.85-15.15-11.99-22.67-18.04-.97-.78-1.82-1.72-3.34-3.17 2.27-.25 3.69-.48 5.11-.54 8.82-.41 17.63-.99 26.45-1.1 4.59-.06 7.24-1.46 8.74-6.14 2.64-8.24 5.98-16.25 9.04-24.35.58-1.53 1.27-3.01 2.36-5.59 1.04 2.05 1.77 3.21 2.24 4.46 3.3 8.72 6.75 17.4 9.73 26.23 1.28 3.8 3.37 5.22 7.24 5.31 9.15.21 18.29.73 27.44 1.17zM848.4 419.4c-.28 2.4-2.11 3.18-3.42 4.23-6.99 5.65-13.96 11.34-21.13 16.76-2.95 2.24-3.75 4.46-2.65 8.07 2.68 8.75 4.97 17.63 7.38 26.46.42 1.52.65 3.1 1.18 5.7-2.38-1.38-3.81-2.12-5.15-3-7.24-4.75-14.61-9.32-21.61-14.4-3.81-2.76-6.68-2.91-10.56-.09-7.27 5.28-14.94 10-22.46 14.93-1.21.79-2.52 1.45-3.78 2.17-.24-.26-.49-.52-.73-.78 2.82-10.26 5.47-20.57 8.56-30.74 1.14-3.77.54-6.03-2.7-8.43-7.48-5.55-14.64-11.55-21.92-17.37-1.02-.81-1.99-1.69-3.66-3.12 1.92-.37 3.09-.74 4.28-.8 9.31-.45 18.63-1 27.95-1.17 4.25-.08 6.59-1.54 7.98-5.73 2.78-8.37 6.11-16.56 9.23-24.81.58-1.52 1.28-2.99 2.38-5.52 1.05 2.14 1.76 3.32 2.24 4.58 3.24 8.57 6.67 17.07 9.55 25.76 1.4 4.23 3.77 5.63 7.99 5.71 8.99.17 17.97.72 26.95 1.14 1.26.07 2.54.28 4.1.45z" style="fill:#fff"/></svg>