<svg xmlns="http://www.w3.org/2000/svg" viewBox="0 0 868.5 866.5" style="enable-background:new 0 0 868.5 866.5" xml:space="preserve"><path d="M679.3 779.9c18.4 5.5 35.5-10.9 30.9-29.5-.7-2.8-1.8-5.6-2.9-8.3-9.8-23.9-19.5-47.8-29.7-71.6-2.1-5-5.4-9.7-9.2-13.6-15.5-16-31.4-31.7-47.2-47.4-25.7-25.7-51.5-51.5-77.2-77.3-2.1-2.1-5.3-3.7-5-8.5h9.8c19.7 0 39.3.2 59-.1 73.7-1.1 130.1-58.3 130.2-131.8v-155c-.1-65.1-45.7-119-109.8-129.3-9.2-1.5-18.7-1.9-28.1-2-23.5-.3-47-.1-70.5-.1-3.4 0-6.9-.3-11.5-.5-.2-12.5-.3-24.4-.5-36.8H368.8c-2.1 12.2.4 24.6-1.8 37.3h-11.4c-23.8 0-47.6-.5-71.3.2-12.5.3-25.4 1.3-37.5 4.2-57.8 13.8-98.8 66.3-98.9 126-.1 138.6-.1 277.2 0 415.7 0 6.1.6 12.3 1.4 18.4 6.7 50.7 51.8 93.3 102.8 97.2 3.4.3 6.8 0 11.4 0V239.4c.3-12.7 5.6-18 18.5-18.1 15-.1 30-.1 44.9 0 2.5 0 5.1.5 8.5.9.2 12.4.4 24.2.6 35.7 10.1 2.3 206 2 213.7-.2.2-2.6.5-5.4.6-8.3.1-6.2 0-12.3.1-18.5.1-9.3.3-9.5 9.3-9.6 13.2-.1 26.4 0 39.6 0 19.1 0 23.3 4.2 23.3 23.3v140c0 2.3.1 4.7-.1 7-.8 10.2-6.1 15.5-16.2 16.2-3.5.2-7 .1-10.6.1-66.6 0-133.3-.1-199.9.1-29.5.1-53.5 20.7-57.4 49.4-2.7 20 3.9 36.9 18.1 51.1 76.8 76.8 153.6 153.7 230.5 230.3 3.8 3.8 8.8 6.8 13.8 8.9 20.5 8.8 41.2 17.2 61.8 25.6 5.7 2.5 11.1 4.9 16.7 6.6zM664.7 709c4.2 4.3 17.1 34 19.6 46.4-16.2-6.7-30.9-12.7-45.7-18.8 3.4-6.5 17.3-21 26.1-27.6z" style="fill:#fff"/></svg>