<svg version="1.1" id="Layer_1" xmlns="http://www.w3.org/2000/svg" x="0" y="0" viewBox="0 0 566.9 566.9" style="enable-background:new 0 0 566.9 566.9" xml:space="preserve"><style>.st0{fill:#fff}</style><circle class="st0" cx="464.4" cy="283.5" r="18"/><circle class="st0" cx="528.2" cy="351.1" r="24.5"/><circle transform="rotate(-45.001 499.423 144.167)" class="st0" cx="499.4" cy="144.2" r="24.3"/><circle class="st0" cx="489.7" cy="240.1" r="14.5"/><path class="st0" d="M435.7 395.1c0-12.2 2.3-23.9 6.5-34.7-23.6-17.4-38.9-45.4-38.9-77s15.3-59.6 38.9-77c-4.2-10.7-6.5-22.4-6.5-34.7 0-31.8 15.6-60.1 39.5-77.5C426.4 44.7 358.5 14 283.5 14 134.8 14 14.2 134.6 14.2 283.3s120.6 269.3 269.3 269.3c75 0 142.9-30.7 191.7-80.2-24-17.2-39.5-45.4-39.5-77.3zm-304.5-19c-32.6 0-59-26.4-59-59s26.4-59 59-59 59 26.4 59 59-26.4 59-59 59zm59-225c-14.9 0-27-12.1-27-27s12.1-27 27-27 27 12.1 27 27-12.1 27-27 27zm61.5 66c0-20.7 16.8-37.5 37.5-37.5s37.5 16.8 37.5 37.5-16.8 37.5-37.5 37.5-37.5-16.8-37.5-37.5zm50.5 228c-18.2 0-33-14.8-33-33s14.8-33 33-33 33 14.8 33 33-14.8 33-33 33z"/></svg>