<svg xmlns="http://www.w3.org/2000/svg" viewBox="0 0 163.7 45.6" style="enable-background:new 0 0 163.7 45.6" xml:space="preserve"><path d="M80.3 8.6h7l-.5-4.3h-8.5c-2.3 0-4.1 1.8-4.1 4.1V25h5v-8.1h7.2v-4.1h-7.2V9.7c0-.6.5-1.1 1.1-1.1m24.8-4.2h-3c-.8 0-1.6.5-1.9 1.3l-7.6 19.4h5.9l1.3-3.8h7.5l1.3 3.8h5.9L107 5.7c-.3-.8-1.1-1.3-1.9-1.3M101 17.5l1.3-3.9c.4-1.2.8-2.8 1.1-4.4h.1c.3 1.6.7 3.2 1.1 4.4l1.3 3.9H101zm54.3 2.3v-3.2h7.5v-4.1h-7.5V9.7c0-.6.5-1 1-1h7.3l-.5-4.3h-8.8c-2.3 0-4.1 1.8-4.1 4.1V21c0 2.3 1.8 4.1 4.1 4.1h8.8l.5-4.3h-7.3c-.5 0-1-.5-1-1m-18.8-1.1c-1.1 1.6-2.6 2.2-4.4 2.2-3.2 0-5.7-2.5-5.7-6.1 0-3.7 2.5-6.2 5.6-6.2 1.8 0 3.4.7 4.5 2.2.3.4.9.5 1.3.3l3.3-2c-1.9-3.5-5.3-5.2-9.3-5.2-6.1 0-11 4.4-11 10.9 0 6.4 4.8 10.9 10.9 10.9 4 0 7.4-1.7 9.4-5.2l-3.3-2c-.4-.4-1-.3-1.3.2m-33.6 15.9-.3-2.7h-4.3c-1.1 0-2 .9-2 2v5.6c0 1.1.9 2 2 2h4.3l.3-2.7h-3.5v-1h3v-2.5h-3v-.9h3.5zm36.1-2.7c-.3 0-.5.2-.5.5v5.4c0 1.5-2.3 1.5-2.3 0v-5.4c0-.3-.2-.5-.5-.5H133v5.2c0 3.1 1.6 4.7 4.5 4.7s4.1-1.7 4.1-4.7v-5.2H139zm-20.5 0h-4.1v9.7h4.1c2.9 0 5-1.8 5-4.8.1-3.2-2.1-4.9-5-4.9m-.3 6.9h-.6v-4.2h.7c1 0 1.8.8 1.8 2.1s-.8 2.1-1.9 2.1M9.4 5.6c-.9-.9-.9-2.3 0-3.2.9-.9 2.3-.9 3.2 0 .9.9.9 2.3 0 3.2-.8.9-2.3.9-3.2 0M6 14.3c1.8 0 3.3-1.5 3.3-3.3 0-1.8-1.5-3.3-3.3-3.3S2.7 9.2 2.7 11c-.1 1.8 1.4 3.3 3.3 3.3m3.3 7.6c0-2.6-2.1-4.6-4.6-4.6S0 19.4 0 21.9c0 2.6 2.1 4.6 4.6 4.6s4.7-2 4.7-4.6m28 2.9-3-5.4c-.2-.3-.3-.7-.3-1.1 0-.5.2-1 .2-1.6C35.3 9.2 29 0 18.4 0c-1.2 0-2.1.9-2.1 2.1 0 1.2.9 2.1 2.1 2.1h.6c1.2 0 2.1.9 2.1 2.1s-.9 2.1-2.1 2.1c-.5 0-.9-.2-1.2-.4-.6-.4-1.3-.7-2-.7-2 0-3.6 1.6-3.6 3.6s1.6 3.6 3.6 3.6c.8 0 1.6-.3 2.2-.7.3-.2.8-.4 1.2-.4 1.2 0 2.1.9 2.1 2.1 0 1.2-.9 2.1-2.1 2.1-.2 0-.5 0-.7-.1-.5-.2-1.1-.3-1.7-.3-2.6 0-4.8 2.1-4.8 4.8 0 2 1.2 3.7 3 4.4.9.4 1.5 1.3 1.5 2.3 0 1.4-1.1 2.5-2.5 2.5-.6 0-1.2-.2-1.7-.6-.9-.9-2.1-1.4-3.5-1.4-2.8 0-5 2.2-5 5s2.2 5 5 5c3.2 0 4.6-1.2 5.9-1.2.7 0 1.3.6 1.3 1.3 0 3.7-1.4 5.5-5.4 5.5v1h16.2v-1c-4 0-5.4-1.8-5.4-5.5 0-.7.6-1.3 1.3-1.3 2 0 2.3.6 5.5.6 2.9 0 4.6-.9 5.3-3.5.6-2.4 1.4-6.1 1.4-6.1.1-.4.5-.8.9-.9 1-.2 1.7-1.1 1.7-2.1 0-.6-.1-.9-.2-1.2" style="fill:#fff"/></svg>