<svg xmlns="http://www.w3.org/2000/svg" viewBox="0 0 1186.7 1187.4"><path d="M1112 525.9c-15.4-20.9-20.8-47.5-14.6-72.7 8.7-35.2-5.4-72.1-35.2-92.7a87.053 87.053 0 0 1-37.4-64c-3.2-36.1-28.5-66.5-63.4-76.2-25-7-45.6-24.7-56.2-48.4-14.8-33.1-48.5-53.6-84.7-51.5-25.9 1.5-51.1-8.6-68.9-27.6-24.7-26.5-63.3-34.9-96.9-21.2-24 9.8-51.2 8.5-74.1-3.7-32-17-71.2-12.5-98.5 11.4-19.5 17.1-45.6 24.6-71.3 20.5-35.8-5.7-71.4 11.3-89.5 42.8-12.9 22.5-35.2 38.1-60.7 42.6-35.7 6.2-63.9 33.9-70.7 69.5-4.9 25.5-20.9 47.5-43.6 60-31.8 17.5-49.4 52.8-44.3 88.7 3.6 25.7-4.3 51.7-21.8 70.9-24.4 26.9-29.6 66-13.1 98.3 11.8 23.1 12.7 50.3 2.4 74.1-14.3 33.3-6.6 72 19.5 97.2 18.7 18 28.3 43.4 26.4 69.3-2.7 36.2 17.2 70.2 50 85.6 23.5 11 40.9 31.9 47.4 57 9.2 35.1 39 60.9 75.1 64.7 25.8 2.8 49 16.9 63.4 38.5 20 30.2 56.7 44.9 92.1 36.8 25.3-5.8 51.9 0 72.5 15.9 28.8 22.1 68.2 24 99 5 22.1-13.7 49.1-16.8 73.7-8.5 34.4 11.5 72.3.6 95.3-27.5 16.4-20.1 41-31.8 66.9-32 36.3-.3 68.6-22.9 81.2-56.9 9-24.3 28.4-43.4 52.9-52 34.2-12 57.4-43.9 58.3-80.2.6-25.9 12.8-50.3 33.2-66.3 28.5-22.5 40.1-60.2 29.1-94.8-7.8-24.7-4.2-51.7 9.8-73.5 19.6-30.5 18.3-70-3.2-99.1h-.1Z" style="fill:#39b54a"/><path d="M349.2 527.7c0-32.5-26.3-58.8-58.8-58.8h-76.9c-6.1 0-11.1 5-11.1 11.1v227.3c0 6.1 5 11.1 11.1 11.1h22c6.1 0 11.1-5 11.1-11.1V512.8h43.5c8.3 0 15 6.8 15 15v179.5c0 6.1 5 11.1 11.1 11.1h22c6.1 0 11.1-5 11.1-11.1h-.1V527.7ZM474.7 469h-29.2c-32.4 0-58.8 26.4-58.8 58.8v131.8c0 32.4 26.4 58.8 58.8 58.8h29.2c32.4 0 58.8-26.4 58.8-58.8V527.8c0-32.4-26.4-58.8-58.8-58.8Zm14.6 190.6c0 8.2-6.4 15-14.6 15h-29.2c-8.2 0-15-6.8-15-15V527.8c0-8.2 6.8-15 15-15h29.2c8.2 0 14.6 6.8 14.6 15v131.8ZM805.5 469h-21.7c-6.1 0-11.1 5-11.1 11.1v179.5c0 8.2-6.5 15-15 15h-29.2c-8.1 0-14.6-6.5-14.6-14.6V480.1c0-6.1-5-11.1-11.1-11.1h-21.7c-6.1 0-11.1 5-11.1 11.1v179.5c0 8.3-6.8 15-15 15h-28.9c-8.3 0-15-6.8-15-15V480.1c0-6.1-5-11.1-11.1-11.1h-21.7c-6.1 0-11.1 5-11.1 11.1v179.5c0 32.5 26.3 58.8 58.8 58.8h28.9c13.9 0 26.1-5.3 37.1-13.9 10.3 8.6 22.8 13.9 36.7 13.9h28.9c32.5 0 58.8-26.3 58.8-58.8h.2V480.1c0-6.1-5-11.1-11.1-11.1Zm167.6 0H866.6c-6.1 0-11.1 5-11.1 11.1v227.3c0 6.1 5 11.1 11.1 11.1h106.5c6.1 0 11.1-5 11.1-11.1v-21.7c0-6.1-5-11.1-11.1-11.1h-73.4v-58.8h38.1c6.1 0 11.1-5 11.1-11.1v-22c0-6.1-5-11.1-11.1-11.1h-38.1v-58.4h73.4c6.1 0 11.1-5 11.1-11.1v-22c0-6.1-5-11.1-11.1-11.1Z" style="fill:#edf8ef"/></svg>